<?xml version="1.0" standalone="no"?>
<!DOCTYPE svg PUBLIC "-//W3C//DTD SVG 1.1//EN" "http://www.w3.org/Graphics/SVG/1.1/DTD/svg11.dtd" >
<svg xmlns="http://www.w3.org/2000/svg" xmlns:xlink="http://www.w3.org/1999/xlink" version="1.1" viewBox="-30 -210 2570 2248">
  <g transform="matrix(1 0 0 -1 0 1638)">
   <path fill="white"
d="M924 642q0 -13 8.5 -22.5t24.5 -9.5q13 0 26 6.5t23.5 17.5t17 25t6.5 30q0 38 -39 38q-14 0 -26 -8t-21 -20.5t-14.5 -27.5t-5.5 -29zM894 704q0 20 -14.5 28.5t-30.5 8.5q-24 0 -47 -29q-22 -28 -22 -53q0 -40 45 -40q28 0 48 33q10 17 15.5 30t5.5 22zM2273 819
q0 -34 -44 -66q76 -129 76 -179q0 -48 -46 -48q-33 0 -86 36.5t-115 101.5q-89 -38 -192 -70.5t-223 -60.5q158 -455 158 -628q0 -178 -137 -178q-128 0 -298 197q-171 198 -325 527l-171 -6q-160 -5 -291 14.5t-224 56.5t-143 87t-47 106q2 36 23.5 71t59.5 65
q20 15 44 28.5t52 27.5q55 27 65 27q14 -97 111 -180q99 -84 141 -84q18 0 48 32q30 30 30 46q0 14 -8.5 24t-32.5 24q-35 20 -65 46t-53 57.5t-38 67.5t-19 75q124 77 295 77q-9 54 -13 106t-4 105q0 96 15.5 172.5t47.5 134.5q63 117 168 117q47 0 101 -44t111 -132
t116.5 -220t117.5 -309q144 -26 277.5 -52.5t258.5 -53.5q11 12 31 31.5t50 47.5q60 55 105.5 77.5t83.5 22.5q52 0 52 -44q0 -26 -23.5 -75.5t-69.5 -124.5q30 -27 30 -53z" />
  </g>

</svg>
