<?xml version="1.0" encoding="UTF-8"?>
<svg width="84.688mm" height="29.938mm" version="1.1" viewBox="0 0 84.688347 29.937769" xmlns="http://www.w3.org/2000/svg" xmlns:cc="http://creativecommons.org/ns#" xmlns:dc="http://purl.org/dc/elements/1.1/" xmlns:rdf="http://www.w3.org/1999/02/22-rdf-syntax-ns#" style="fill: currentColor">
<defs>
<clipPath id="a">
<rect x="83.254" y="48.205" width="3.8086" height="4.5102" d="m 83.254456,48.205471 c 0,0 3.80859,0 3.80859,0 0,0 0,4.510173 0,4.510173 0,0 -3.80859,0 -3.80859,0 0,0 0,-4.510173 0,-4.510173 z" stroke-width=".26458"/>
</clipPath>
</defs>
<metadata>
<rdf:RDF>
<cc:Work rdf:about="">
<dc:format>image/svg+xml</dc:format>
<dc:type rdf:resource="http://purl.org/dc/dcmitype/StillImage"/>
<dc:title/>
</cc:Work>
</rdf:RDF>
</metadata>
<g transform="translate(-14.776 -36.108)">
<g transform="matrix(.87247 0 0 .92958 -17.48 -9.8827)" stroke-width="1.1104">
<g transform="matrix(.9858 0 0 .96429 1.2143 2.4136)">
<g transform="matrix(1 0 0 1.0041 -9.5157 -13.517)" stroke-width=".24107">
<path transform="translate(13.506 13.894)" d="m83.692 51.548c-0.96218-1.0242-0.24655-2.6851 1.1569-2.6851 0.81802 0 1.5578 0.76799 1.5578 1.6172 0 1.3698-1.7751 2.0681-2.7148 1.0679z" clip-path="url(#a)"/>
<path d="m79.554 62.736c-1.4035 0-2.1192 1.6609-1.157 2.6851 0.93964 1.0002 2.7146 0.30169 2.7146-1.0681 0-0.84917-0.73951-1.617-1.5575-1.617zm54.622 0.48214l-1.3203 0.42943-1.3198 0.42891 0.39946 1.1617c0.36242 1.0533 0.39997 1.8604 0.39997 8.6429v7.4812h1.3756 1.3756v-4.964-4.964l0.93792-0.64492c0.81815-0.56291 1.1203-0.64544 2.3678-0.64544 1.1768 0 1.5167 0.08161 1.9198 0.46044 0.48589 0.45661 0.48989 0.50051 0.48989 5.609v5.149h1.3756 1.3756v-5.5506-5.5506l-1.3167-1.3286-1.3167-1.3286h-2.1027c-1.9169 0-2.1643 0.04678-2.7967 0.52917-0.38157 0.29104-0.74739 0.52917-0.81339 0.52917-0.0659 0-0.1204-0.58858-0.1204-1.3079 0-0.7594-0.19082-1.9007-0.45527-2.7218l-0.45527-1.4144zm-5.5878 3.8566c-0.25652-0.01162-0.75496 0.06249-1.2816 0.19896-0.84871 0.21992-2.2266 0.33073-4.1103 0.33073h-2.8334l-1.2108 1.2232-1.2103 1.2232v2.6283c0 2.5179 0.0221 2.6514 0.53123 3.1828 0 0 0.53175 0.55449 0.53175 0.55449l-0.53175 0.4992c-0.4637 0.43561-0.53123 0.67802-0.53123 1.9012 0 1.342 0.034 1.4348 0.79685 2.1797l0.79685 0.77825 3.3838 0.05839s3.3833 0.05891 3.3833 0.05891v0.74052 0.74104s-2.6303 0.05943-2.6303 0.05943c-2.1847 0.04961-2.8435-0.01236-3.8902-0.36587-0.69313-0.23409-1.3394-0.37655-1.4361-0.31678-0.15326 0.09472-0.49562 1.3491-0.50592 1.8624-2e-3 0.09962 0.66252 0.40003 1.4774 0.66714 1.2633 0.41409 1.9537 0.48895 4.6829 0.50695l3.2008 0.02067s0.87333-0.94775 0.87333-0.94775c0.81483-0.88404 0.87385-1.0303 0.87385-2.1782 0-1.1687-0.0455-1.2752-0.90176-2.1156l-0.90175-0.88522s-3.2556-0.0584-3.2556-0.0584c-2.8314-0.05105-3.2868-0.10732-3.4897-0.42943-0.17-0.26986-0.16997-0.47068 0-0.74052 0.20153-0.31996 0.64848-0.37843 3.2799-0.42943 0 0 3.0463-0.05891 3.0463-0.05891l1.1782-1.1658 1.1777-1.1658-0.0227-2.2438-0.0227-2.2438-0.83251-0.69918c-0.45802-0.38454-0.78775-0.7442-0.73225-0.79892 0.0555-0.05472 0.43435-0.18766 0.84181-0.29559 0.71922-0.19052 0.73923-0.22324 0.67851-1.1291-0.0344-0.51322-0.1405-1.0113-0.23565-1.1064-0.0238-0.02378-0.0824-0.03695-0.16794-0.04082l-7e-5 3e-6zm-29.723 0.34262l-1.2035 0.44855c-0.66209 0.24696-1.2322 0.46874-1.2671 0.49248-0.03492 0.02374 0.13137 0.62276 0.37 1.3312 0.3906 1.1596 0.43408 1.8055 0.43408 6.4802v5.193h1.3756 1.3761v-5.3439c0-5.1702-0.01778-5.3968-0.5426-6.9727l-0.5426-1.6288zm6.1231 0.0078l-0.95239 0.2868c-0.52379 0.15764-1.0031 0.33703-1.065 0.39894-0.062 0.06196 0.0427 0.73101 0.23254 1.4867 0.27245 1.0844 0.3452 2.4695 0.3452 6.5696v5.195h1.3756 1.3761v-4.7243-4.7243s0.75706-0.88522 0.75706-0.88522 0.75758-0.8847 0.75758-0.8847h1.6102c1.362 0 1.6858 0.0711 2.1001 0.46044 0.48588 0.45661 0.4899 0.50051 0.4899 5.609v5.149h1.3756 1.3762v-5.5506-5.5506s-1.3167-1.3286-1.3167-1.3286l-1.3167-1.3286h-2.4768-2.4768s-0.7245 0.84646-0.7245 0.84646c-0.39858 0.46567-0.78591 0.84698-0.86041 0.84698-0.0745-3e-6 -0.24141-0.42103-0.37104-0.93586l-0.23565-0.93638zm-19.102 0.17932l-1.2232 1.2103-1.2232 1.2103v1.4924c0 1.2385 0.08885 1.6228 0.52348 2.2624 0.48426 0.71265 0.77193 0.8531 3.8251 1.8707 2.72 0.90656 3.3416 1.19 3.5326 1.6092 0.19548 0.42903 0.15451 0.59111-0.26303 1.0356-0.45782 0.48737-0.64157 0.5271-2.436 0.5271-1.3895 0-2.2904-0.12014-3.1714-0.42323-0.67674-0.23283-1.2584-0.42323-1.2924-0.42323-0.115 0-0.79486 2.3223-0.70332 2.4024 0.04992 0.04368 0.66214 0.27563 1.3606 0.51522 1.0219 0.35052 1.8273 0.43867 4.1217 0.45217l2.8515 0.01705 1.2232-1.2108 1.2232-1.2103v-1.3338c0-1.047-0.11026-1.5084-0.51315-2.1466-0.47874-0.75837-0.71044-0.88144-3.4401-1.8309-1.6095-0.55983-3.1375-1.094-3.3962-1.1865-0.71879-0.25713-0.84988-1.1544-0.25993-1.7823 0.43847-0.46674 0.65564-0.51728 2.2118-0.51728 1.2631 0 2.1232 0.13553 3.2122 0.50591 0 0 1.4878 0.50591 1.4878 0.50591l0.36535-1.1596c0.20104-0.63772 0.326-1.199 0.2775-1.2475-0.04849-0.04849-0.78704-0.32596-1.6412-0.6165-1.3172-0.44802-1.9406-0.52813-4.1031-0.52813 0 0-2.5497 5e-6 -2.5497 5e-6zm-6.12 0.07958c-0.35257-0.01754-2.1774 0.46771-2.4123 0.65474-0.0294 0.02341 0.13738 0.59724 0.37052 1.2749 0.3798 1.1039 0.42375 1.7809 0.42375 6.5107 0 6.3276 0.02037 6.2602-2.1079 6.9551-0.76155 0.24866-1.4637 0.5245-1.5606 0.61288-0.09695 0.08836-0.0033 0.64813 0.20826 1.2439 0.21159 0.59573 0.4335 1.0843 0.49351 1.0857 0.05999 0.0014 0.98046-0.29646 2.0454-0.66197 1.8869-0.64767 1.9582-0.69694 2.8045-1.9234l0.86868-1.2583v-5.7195c0-5.2028-0.03998-5.8516-0.4439-7.1815-0.24422-0.80405-0.53226-1.5161-0.63976-1.5828-0.0095-0.0059-0.02662-0.0092-0.05012-0.01033l-5e-6 -4e-6zm43.272 2.4603c1.5295 0 1.5944 0.02164 2.4701 0.82217 0.87999 0.80441 0.89968 0.85154 0.89968 2.1854 0 1.1515-0.0762 1.4349-0.48989 1.8237-0.42364 0.39803-0.73316 0.46044-2.2888 0.46044-1.6946 0-1.832-0.03449-2.3678-0.59376-0.52085-0.54366-0.56844-0.73696-0.56844-2.2955 0-2.2123 0.1856-2.4024 2.3451-2.4024z"/>
<text transform="scale(1.17975 1.1199)" x="80.184479" y="80.133974" xml:space="preserve"><tspan x="71.184479" y="76.143974" font-family="Bahnschrift" font-size="3.6997px" font-weight="600" stroke-width=".36301" style="line-height:3">Jaspreet Singh</tspan></text>
</g>
<text transform="scale(.94535 1.0578)" x="71.184479" y="76.143974" font-family="sans-serif" font-size="12.75px" letter-spacing="0px" stroke-width=".36301" word-spacing="0px" style="line-height:1.25" xml:space="preserve"><tspan x="71.184479" y="76.143974" font-family="Bahnschrift" font-size="7.4997px" font-weight="600" stroke-width=".36301" style="line-height:3">Developer &amp; Designer</tspan></text>
<path d="m42.904 81.277c0-0.3135-0.37996-0.40307-1.7098-0.40307h-1.7098v-2.3856c0-1.5588 0.15489-2.7351 0.44694-3.3942 0.60817-1.3725 2.7911-3.3157 4.9354-4.3934l1.7739-0.89152-1.2952-0.7745c-0.71233-0.42597-1.6492-1.2571-2.082-1.847-0.76255-1.0393-0.83797-1.0728-2.4396-1.0827-2.2707-0.014-3.2303-0.53067-3.6405-1.9601-0.39897-1.3905-0.20824-4.4286 0.32894-5.2397 0.43595-0.65823 1.6396-1.1404 2.8469-1.1404 0.65993 0 0.82265-0.14354 0.98998-0.87331 0.57601-2.5122 2.9609-5.4018 5.3789-6.5173 5.0006-2.307 10.755 0.33232 12.723 5.8359 0.39772 1.1121 0.65186 1.4382 1.1708 1.5025 1.5476 0.19183 2.5423 0.66589 2.9475 1.4048 0.48272 0.8802 0.57922 4.4041 0.14978 5.4691-0.37862 0.93902-1.7017 1.5083-3.5056 1.5083-1.4459 0-1.5713 0.05618-2.3652 1.0594-0.46108 0.58268-1.3989 1.3955-2.0841 1.8063-1.0945 0.65615-1.1847 0.78038-0.74263 1.0231 5.3791 2.9532 6.6667 4.7018 6.6835 9.0765l7e-3 1.8138h-1.7098c-1.3299 0-1.7098 0.08957-1.7098 0.40307 0 0.26871-0.28497 0.40306-0.85491 0.40306h-0.85491v-2.5527-2.5527h-6.1269-6.1269v2.5527c0 2.5438-0.0025 2.5527-0.71242 2.5527-0.44329 0-0.71242-0.15227-0.71242-0.40306h-2.9e-5zm9.1409-8.4437c0.52781-0.49769 0.83298-1.0638 0.83297-1.5451l-2e-5 -0.75962-2.4222-0.01578c-2.262-0.01475-2.422 0.02076-2.418 0.53742 0.0099 1.3008 1.3069 2.5552 2.6537 2.5646 0.28634 2e-3 0.89546-0.3495 1.3536-0.7815v-2.6e-5zm1.933-4.486c2.7452-1.2899 4.5994-4.3609 4.5994-7.6176 0-1.511-0.0051-1.52-1.1326-1.989-0.6229-0.25914-1.566-0.94866-2.0958-1.5323l-0.96321-1.0611-1.0297 0.4057c-1.3216 0.52071-4.4754 0.52202-5.794 0.0025-0.56267-0.22168-1.0588-0.40307-1.1026-0.40307-0.04376 0-0.3376 0.41242-0.653 0.91649-0.38381 0.6134-1.063 1.1244-2.0536 1.5451 0 0-1.4801 0.62859-1.4801 0.62859l0.15795 1.7466c0.2195 2.4272 0.88602 4.0553 2.2649 5.5324 2.3711 2.54 6.1712 3.2874 9.2823 1.8256v1.43e-4zm-10.219-6.8205v-2.4184h2.9922 2.9922v0.80613c0 0.71656 0.09499 0.80613 0.85491 0.80613 0.75992 0 0.85491-0.08957 0.85491-0.80613v-0.80613h2.9922 2.9922v2.4184 2.4184h-2.9922-2.9922v-0.80613c0-0.71656-0.09499-0.80613-0.85491-0.80613-0.75992 0-0.85491 0.08957-0.85491 0.80613v0.80613h-2.9922-2.9922v-2.4184zm4.5063-0.06718c-0.08708-0.85163-0.12643-0.87532-1.5854-0.95453l-1.4961-0.08122v0.95453 0.95452h1.5854 1.5854l-0.0893-0.8733zm7.4624-0.06718v-0.94048h-1.4249-1.4249v0.94048 0.94048h1.4249 1.4249v-0.94048zm-14.818 0.65556v-2.7033l-1.0686 0.0834-1.0686 0.0834-0.08322 2.2429c-0.09301 2.5071 0.13589 2.9969 1.4005 2.9969h0.82001l3e-6 -2.7033zm21.137 2.2586c0.41224-0.35178 0.52114-0.8459 0.52114-2.3646 0-2.1184-0.25792-2.5648-1.4818-2.5648h-0.79792v2.6871c0 2.5786 0.02497 2.6871 0.61875 2.6871 0.34031 0 0.85326-0.20012 1.1399-0.44471z" stroke-width=".31515"/>
<path d="m52.543 65.012a2.1446 1.6613 0 0 1 -0.80234 1.8038 2.1446 1.6613 0 0 1 -2.4625 0.03 2.1446 1.6613 0 0 1 -0.87517 -1.7833" stroke-width=".30133"/>
<text x="46.038189" y="81.033844" font-family="sans-serif" font-size="10.583px" letter-spacing="0px" stroke-width=".30133" word-spacing="0px" style="line-height:1.25" xml:space="preserve"><tspan x="46.038189" y="81.033844" font-family="'Reem Kufi'" font-size="5.6444px" stroke-width=".30133">&lt;/&gt;</tspan></text>
</g>
</g>
</g>
</svg>
