<?xml version="1.0" encoding="UTF-8" standalone="no"?>
<!-- Created with Inkscape (http://www.inkscape.org/) -->

<svg
   xmlns:dc="http://purl.org/dc/elements/1.1/"
   xmlns:cc="http://creativecommons.org/ns#"
   xmlns:rdf="http://www.w3.org/1999/02/22-rdf-syntax-ns#"
   xmlns:svg="http://www.w3.org/2000/svg"
   xmlns="http://www.w3.org/2000/svg"
   xmlns:sodipodi="http://sodipodi.sourceforge.net/DTD/sodipodi-0.dtd"
   xmlns:inkscape="http://www.inkscape.org/namespaces/inkscape"
   width="36.555996mm"
   height="45.29287mm"
   viewBox="0 0 36.555996 45.29287"
   version="1.1"
   id="svg8"
   inkscape:version="0.92.4 5da689c313, 2019-01-14"
   sodipodi:docname="me.svg">
  <defs
     id="defs2" />
  <sodipodi:namedview
     id="base"
     pagecolor="#ffffff"
     bordercolor="#666666"
     borderopacity="1.0"
     inkscape:pageopacity="0.0"
     inkscape:pageshadow="2"
     inkscape:zoom="1.21875"
     inkscape:cx="33.267026"
     inkscape:cy="97.072351"
     inkscape:document-units="mm"
     inkscape:current-layer="layer1"
     showgrid="false"
     inkscape:window-width="1866"
     inkscape:window-height="1046"
     inkscape:window-x="54"
     inkscape:window-y="0"
     inkscape:window-maximized="1">
    <inkscape:grid
       type="xygrid"
       id="grid4581"
       originx="-97.274097"
       originy="-151.1642" />
  </sodipodi:namedview>
  <metadata
     id="metadata5">
    <rdf:RDF>
      <cc:Work
         rdf:about="">
        <dc:format>image/svg+xml</dc:format>
        <dc:type
           rdf:resource="http://purl.org/dc/dcmitype/StillImage" />
        <dc:title></dc:title>
      </cc:Work>
    </rdf:RDF>
  </metadata>
  <g
     inkscape:label="Layer 1"
     inkscape:groupmode="layer"
     id="layer1"
     transform="translate(-97.2741,-100.54293)">
    <path
       style="fill:#000000;stroke-width:0.08466667"
       d="m 97.27469,145.25478 c 0,-0.57274 0.17287,-0.81822 0.51348,-0.72915 0.0901,0.0236 0.16385,3e-4 0.16385,-0.0517 0,-0.052 -0.0774,-0.0945 -0.17199,-0.0945 -0.0946,0 -0.19476,-0.0593 -0.22259,-0.13186 -0.0278,-0.0725 -0.10283,-0.11182 -0.16668,-0.0873 -0.0919,0.0353 -0.11607,-0.0857 -0.11607,-0.57952 0,-0.62389 7e-5,-0.62408 0.26672,-0.71704 0.1467,-0.0511 0.4687,-0.30486 0.71555,-0.56383 0.38272,-0.40152 0.97801,-0.88375 1.09093,-0.88375 0.0841,0 1.14413,-0.7032 1.14413,-0.75897 0,-0.0345 0.22924,-0.24282 0.50942,-0.46294 0.28018,-0.22012 0.66139,-0.62402 0.84715,-0.89755 0.18575,-0.27353 0.3854,-0.52768 0.44366,-0.56477 0.27298,-0.17379 0.94116,-1.03544 1.2252,-1.57995 0.43007,-0.82446 1.01979,-1.39668 1.89065,-1.83454 0.38982,-0.196 0.9225,-0.54227 1.18374,-0.76949 0.26124,-0.22722 0.49891,-0.41312 0.52816,-0.41312 0.16973,0 0.72765,-0.47855 0.91478,-0.78464 0.22937,-0.37517 0.23877,-0.37802 0.89054,-0.26997 0.48335,0.0801 0.62408,-0.0214 1.14703,-0.82736 0.71657,-1.1044 1.00301,-2.06324 1.00301,-3.35755 0,-0.36747 -0.32483,-0.68604 -0.70032,-0.68683 -0.0825,-1.7e-4 -0.36545,-0.21238 -0.62881,-0.47156 -0.26335,-0.25918 -0.57755,-0.52229 -0.69821,-0.58468 -1.02209,-0.52855 -2.61479,-3.40101 -3.23158,-5.82822 -1.39747,-5.49941 -0.66041,-10.69998 2.01703,-14.23178 6.45816,-8.518941 12.38087,-8.730151 17.27784,-0.61613 1.38879,2.30115 2.53022,5.33891 2.07213,5.5147 -0.16242,0.0623 -0.52942,-0.29115 -0.52942,-0.50991 0,-0.0677 -0.13119,-0.3098 -0.29154,-0.53793 -0.16035,-0.22813 -0.42597,-0.69447 -0.59027,-1.0363 -0.22251,-0.46295 -0.48832,-0.81697 -1.04195,-1.3877 -0.89511,-0.92276 -1.27743,-1.13412 -2.58245,-1.42769 -0.2071,-0.0466 -0.22129,-0.0722 -0.13958,-0.2515 0.0972,-0.21328 -0.10177,-0.56029 -0.32122,-0.56029 -0.0569,0 -0.16144,-0.0829 -0.2324,-0.18419 -0.11273,-0.16095 -0.15658,-0.17163 -0.34745,-0.0847 -0.29449,0.13418 -0.3138,0.12712 -0.19082,-0.0698 0.0582,-0.0931 0.15598,-0.16934 0.21738,-0.16934 0.0614,0 0.0874,-0.0393 0.0577,-0.0873 -0.0313,-0.0506 -0.17563,-0.0644 -0.34367,-0.0329 -0.30833,0.0578 -0.3799,-0.0383 -0.16273,-0.21849 0.26737,-0.2219 0.0624,-0.36126 -0.79801,-0.5426 -0.41726,-0.0879 -0.7046,-0.30407 -0.40425,-0.30407 0.38212,0 0.19531,-0.4038 -0.22963,-0.49637 -0.42679,-0.093 -2.00663,-0.14591 -2.25111,-0.0754 -0.0699,0.0201 -0.2794,0.0649 -0.46566,0.0995 -0.4739,0.088 -1.89418,0.55562 -1.94695,0.641 -0.024,0.0389 -0.21064,0.15148 -0.41473,0.25028 -0.20409,0.0988 -0.57151,0.3688 -0.81648,0.59999 -0.24496,0.2312 -0.47377,0.42036 -0.50846,0.42036 -0.0347,0 -0.22904,0.17386 -0.43189,0.38636 -0.20285,0.21249 -0.52459,0.54587 -0.71497,0.74083 -0.59779,0.61218 -1.67026,2.10845 -2.07212,2.89094 -0.0727,0.14165 -0.17621,0.33374 -0.22992,0.42687 -0.47454,0.82288 -1.08586,2.48049 -0.96088,2.60547 0.0763,0.0763 0.3494,-0.41307 0.3494,-0.62614 0,-0.0409 0.0572,-0.0743 0.127,-0.0743 0.17492,0 0.15896,0.10434 -0.0423,0.27669 -0.0931,0.0797 -0.16933,0.20869 -0.16933,0.28655 0,0.0779 -0.10327,0.31635 -0.22948,0.52999 -0.12622,0.21364 -0.23588,0.52179 -0.24369,0.68477 -0.008,0.16299 -0.0433,0.47918 -0.0789,0.70265 -0.0703,0.44123 0.14279,0.42743 0.97369,-0.0631 0.16203,-0.0957 0.40968,-0.21387 0.55034,-0.26271 0.14065,-0.0488 0.2462,-0.13456 0.23456,-0.1905 -0.0264,-0.12666 0.0841,-0.13193 0.20617,-0.01 0.20076,0.20076 0.56874,-0.12443 0.68122,-0.60201 0.1255,-0.53286 0.30048,-0.69376 0.68367,-0.62864 0.27988,0.0476 0.27988,0.0476 0.10583,-0.1265 -0.0957,-0.0957 -0.21216,-0.17405 -0.25872,-0.17405 -0.10486,0 -0.10623,-0.0888 -0.004,-0.25064 0.0667,-0.10541 0.10504,-0.0993 0.26035,0.0412 0.1837,0.16625 0.42085,0.0327 0.42085,-0.23701 0,-0.21529 0.77199,-1.02907 0.85255,-0.89871 0.029,0.047 0.11649,-0.0121 0.19469,-0.13147 0.0781,-0.11919 0.1942,-0.21672 0.25799,-0.21672 0.16012,0 0.24249,0.25022 0.10033,0.30477 -0.0636,0.0244 -0.13958,0.1944 -0.1689,0.37779 -0.0293,0.1834 -0.0973,0.33344 -0.1511,0.33344 -0.0538,0 -0.0741,0.0236 -0.0453,0.0525 0.058,0.058 0.65304,-0.54071 0.65304,-0.65703 0,-0.0401 0.0286,-0.0728 0.0635,-0.0728 0.0724,0 0.78586,-0.95009 0.95374,-1.27 0.0611,-0.11642 0.16785,-0.25353 0.23724,-0.30469 0.0694,-0.0512 0.18699,-0.20547 0.26134,-0.3429 0.26285,-0.48585 0.46766,-0.77359 0.61704,-0.86688 0.10132,-0.0633 0.0588,0.0522 -0.12882,0.3502 -0.15399,0.24453 -0.33165,0.57795 -0.3948,0.74094 -0.0631,0.16298 -0.17938,0.39158 -0.2583,0.508 -0.3939,0.58104 -0.52053,0.93133 -0.33666,0.93133 0.0956,0 0.17105,0.056 0.17105,0.127 0,0.0699 0.01,0.12642 0.0212,0.12571 0.36791,-0.0223 1.3335,-0.60843 1.3335,-0.8094 0,-0.0296 0.0949,-0.17367 0.21092,-0.32009 0.37021,-0.46728 0.46949,-0.59994 0.61774,-0.82546 0.0798,-0.12132 0.3355,-0.44228 0.56834,-0.71325 0.23283,-0.27097 0.56823,-0.66215 0.74533,-0.86928 0.65323,-0.76399 2.26033,-2.02755 2.26033,-1.77714 0,0.18066 -0.25091,0.48991 -0.39749,0.48991 -0.23771,0 -1.11443,1.02702 -1.94501,2.27844 -0.82227,1.23891 -1.04924,1.70089 -0.83565,1.70089 0.0616,0 0.13489,0.0596 0.16283,0.13237 0.0279,0.0728 0.0892,0.10865 0.13606,0.0797 0.17217,-0.10641 0.25794,0.0509 0.1285,0.23569 -0.17109,0.24426 -0.16181,0.54011 0.0203,0.64616 0.12477,0.0727 0.10805,0.087 -0.10583,0.091 -0.27663,0.005 -0.96481,0.21914 -1.56634,0.48722 -0.20955,0.0934 -0.5715,0.23519 -0.80433,0.31511 -0.77299,0.26533 -2.02955,0.73912 -2.20133,0.83003 -0.0931,0.0493 -0.37889,0.15724 -0.635,0.23991 -0.80967,0.26134 -1.47312,0.4981 -1.73567,0.6194 -0.1397,0.0645 -0.39687,0.17619 -0.5715,0.24811 -0.32008,0.1318 -0.42142,0.35882 -0.19838,0.44441 0.11477,0.044 0.66455,-0.11377 1.19321,-0.34252 0.1397,-0.0605 0.42545,-0.1598 0.635,-0.22079 0.20955,-0.061 0.4191,-0.13772 0.46567,-0.17052 0.0466,-0.0328 0.21802,-0.0876 0.381,-0.12171 0.16298,-0.0341 0.32988,-0.082 0.37089,-0.10627 0.0835,-0.0495 1.74567,-0.63263 3.10044,-1.0877 0.48895,-0.16424 0.97339,-0.35327 1.07653,-0.42007 0.23668,-0.15329 0.95547,-0.16461 0.95547,-0.0151 0,0.0585 -0.0379,0.23848 -0.0842,0.39992 -0.0607,0.21153 -0.0509,0.45971 0.035,0.88844 0.16392,0.81792 0.24409,1.5489 0.15597,1.42213 -0.0519,-0.0746 -0.1139,-0.0338 -0.2189,0.14396 -0.1415,0.23955 -0.14064,0.25122 0.0251,0.33992 0.1156,0.0619 0.17163,0.0632 0.17163,0.004 0,-0.17965 0.18124,-0.0738 0.7388,0.43149 0.91438,0.82865 1.78438,1.16553 2.51633,0.97439 1.19418,-0.31184 2.23387,-1.32797 2.84778,-2.78325 0.27923,-0.66193 0.34331,-0.6122 0.14826,0.11507 -0.20626,0.76904 -0.36193,1.13907 -0.62346,1.48195 -0.11497,0.15074 -0.20904,0.30199 -0.20904,0.33612 0,0.0341 -0.055,0.12239 -0.12234,0.19615 -0.49815,0.54609 -0.8091,0.92638 -0.80966,0.99024 -10e-4,0.12533 -0.44695,0.29644 -0.53722,0.20617 -0.0512,-0.0512 -0.14569,-0.045 -0.25825,0.017 -0.70125,0.38601 -2.506,0.0936 -2.99261,-0.48489 -0.11833,-0.14067 -0.33345,-0.30549 -0.47803,-0.36627 -0.14459,-0.0608 -0.3676,-0.21071 -0.49558,-0.33319 -0.24531,-0.23478 -0.57443,-0.31434 -0.67197,-0.16244 -0.0401,0.0625 -0.12225,0.0559 -0.26622,-0.0211 -0.34416,-0.18418 -1.41146,0.33874 -1.41146,0.69155 0,0.049 -0.0881,0.20697 -0.19584,0.35106 -0.23081,0.30876 -0.74683,1.24626 -0.90111,1.63712 -0.14245,0.36088 0.0785,0.90759 0.33407,0.82649 0.15442,-0.049 0.22637,0.003 0.46675,0.33838 0.12038,0.16789 0.12144,0.16779 0.12411,-0.012 0.005,-0.35456 0.59418,-0.35869 0.59665,-0.004 10e-4,0.14416 0.0184,0.15841 0.0782,0.064 0.0959,-0.15152 0.30617,-0.004 0.39506,0.27737 0.0318,0.10057 0.14756,0.30075 0.25728,0.44484 0.19878,0.26108 0.24981,0.46379 0.14351,0.57009 -0.0883,0.0883 -0.0902,0.59622 -0.003,0.71309 0.0801,0.10691 0.0676,0.11406 -0.23776,0.136 -0.10396,0.007 -0.15783,0.0612 -0.13955,0.13917 0.0164,0.0699 0.0416,0.34423 0.056,0.60974 0.0144,0.26551 0.0537,0.52727 0.0873,0.5817 0.0336,0.0544 0.0656,0.28298 0.071,0.50789 0.0115,0.4776 0.14409,0.67167 0.34494,0.50498 0.1065,-0.0884 0.15673,-0.0869 0.27228,0.008 0.1275,0.10457 0.13529,0.095 0.0778,-0.0955 -0.12632,-0.41873 -0.13756,-0.55231 -0.0568,-0.67488 0.14755,-0.22393 0.25015,0.0625 0.40237,1.12352 0.0903,0.62916 0.78957,0.75716 0.78957,0.14452 0,-0.17975 0.0553,-0.36432 0.127,-0.42382 0.0699,-0.058 0.127,-0.19374 0.127,-0.30171 0,-0.10796 0.0406,-0.22141 0.0903,-0.25211 0.1454,-0.0899 0.18397,0.0156 0.0715,0.19569 -0.11031,0.17663 -0.0565,0.44279 0.0895,0.44279 0.19195,0 0.0942,-0.67909 -0.12737,-0.88439 -0.25837,-0.23945 -0.39033,-0.90832 -0.29755,-1.50825 0.0657,-0.42458 0.17358,-0.63589 0.17358,-0.33986 0,0.0959 0.0565,0.19605 0.12548,0.22254 0.069,0.0265 0.14997,0.20132 0.17991,0.38852 0.0299,0.1872 0.0905,0.3181 0.13449,0.29088 0.0442,-0.0273 0.0551,-0.19723 0.0243,-0.37946 -0.0574,-0.33941 -0.0286,-0.36745 0.36202,-0.3526 0.0586,0.002 0.12941,-0.087 0.15734,-0.19833 0.0598,-0.23821 0.16979,-0.26298 0.24066,-0.0542 0.1325,0.3903 0.29078,0.49502 0.43563,0.28822 0.0737,-0.10518 0.17738,-0.17676 0.23047,-0.15906 0.0531,0.0177 0.2011,-0.13271 0.32891,-0.33424 0.1278,-0.20153 0.27225,-0.36642 0.321,-0.36642 0.0487,0 0.12281,-0.0899 0.16458,-0.19979 0.0551,-0.145 0.16485,-0.21445 0.40008,-0.25325 0.24808,-0.0409 0.36898,-0.12315 0.51539,-0.35054 0.1052,-0.1634 0.22912,-0.29709 0.27538,-0.29709 0.0463,0 0.21752,-0.14767 0.38058,-0.32815 0.16711,-0.18498 0.40698,-0.35026 0.54975,-0.37882 0.47886,-0.0958 0.89204,-0.47836 0.51661,-0.47836 -0.0884,0 -0.37803,-0.1143 -0.6436,-0.254 -0.26558,-0.1397 -0.53375,-0.254 -0.59594,-0.254 -0.17817,0 -0.046,-0.59811 0.18717,-0.84667 0.48659,-0.51882 0.7051,-0.77988 0.7051,-0.84241 0,-0.0838 0.59393,-0.59692 0.69098,-0.59692 0.0391,0 0.071,0.05 0.071,0.11116 0,0.13349 -0.43559,0.56617 -0.56999,0.56617 -0.17055,0 -0.44601,0.43988 -0.44601,0.71225 0,0.66095 0.38213,0.76218 1.08044,0.28622 0.73069,-0.49803 1.46625,-0.6373 1.87048,-0.35417 0.12529,0.0878 0.28251,0.11871 0.44148,0.0869 0.22323,-0.0446 0.23756,-0.0344 0.14955,0.10649 -0.16143,0.25849 -0.0256,0.46139 0.26935,0.4024 0.3092,-0.0618 0.3131,-0.024 0.032,0.31011 -0.22679,0.26953 -0.0908,0.56645 0.25933,0.56645 0.0575,0 0.16673,0.0688 0.24279,0.15281 0.0761,0.084 0.27212,0.20532 0.43567,0.26949 0.16356,0.0642 0.31669,0.17639 0.34029,0.24936 0.0236,0.073 0.17636,0.27766 0.33946,0.45488 0.33378,0.36268 0.34861,0.39746 0.16953,0.39746 -0.0698,0 -0.127,0.0588 -0.127,0.13071 0,0.0767 0.06,0.12042 0.1451,0.10583 0.085,-0.0146 0.15812,0.0386 0.17655,0.12851 0.0276,0.13451 0.0102,0.14011 -0.14125,0.0455 -0.24711,-0.15432 -0.3152,-0.0309 -0.12836,0.23265 0.39333,0.55489 0.44776,0.74 0.4519,1.53692 0.003,0.49295 -0.0289,0.78317 -0.0848,0.78317 -0.21745,0 -0.57347,-0.26743 -0.62399,-0.46873 -0.0771,-0.30722 -0.23812,-0.21889 -0.35843,0.19665 -0.11322,0.39105 0.0798,0.78008 0.38698,0.78008 0.53294,0 0.93468,3.15962 0.44058,3.46499 -0.0539,0.0333 -0.13329,0.1722 -0.17639,0.30863 -0.21699,0.68688 -0.33748,0.92471 -0.46289,0.91362 -0.0731,-0.006 -0.13299,0.034 -0.13299,0.0899 0,0.29544 -0.8764,0.60978 -1.84148,0.66049 -0.24447,0.0129 -0.44449,0.0564 -0.4445,0.0967 -1e-5,0.0404 -0.0748,0.0538 -0.16624,0.0299 -0.0914,-0.0239 -0.2111,0.0106 -0.26595,0.0767 -0.0556,0.067 -0.16904,0.0982 -0.25622,0.0705 -0.0861,-0.0273 -0.24157,0.01 -0.34556,0.0828 -0.10398,0.0728 -0.24248,0.13243 -0.30776,0.13243 -0.11621,0 -0.71904,0.60086 -1.08775,1.0842 -0.10632,0.13937 -0.21177,0.43947 -0.2465,0.70151 -0.0334,0.25188 -0.16882,0.68655 -0.30097,0.96595 -0.13215,0.2794 -0.2403,0.56 -0.24033,0.62354 -4e-5,0.0636 -0.0916,0.29215 -0.20353,0.508 -0.42678,0.82322 -0.43595,0.97661 -0.0761,1.27322 0.25481,0.21004 0.27634,0.25968 0.19987,0.46082 -0.15425,0.4057 0.14388,0.83343 0.33369,0.47876 0.0498,-0.0931 0.14419,-0.16934 0.20965,-0.16934 0.17723,0 0.5394,-1.51542 0.55139,-2.30716 0.011,-0.72461 0.84217,1.35567 0.84618,2.11775 10e-4,0.28043 -0.5124,0.95096 -0.72902,0.95127 -0.22696,3.4e-4 -0.30655,0.24564 -0.0968,0.29829 0.16702,0.0419 0.19739,0.0941 0.16867,0.2898 -0.0193,0.13126 0.007,0.26448 0.0578,0.29602 0.0511,0.0315 0.0928,0.017 0.0928,-0.0323 0,-0.16559 0.14902,-0.0917 0.20327,0.10083 0.13724,0.48695 0.55203,-0.46073 0.56513,-1.29116 0.007,-0.46358 0.008,-0.46453 0.12365,-0.21167 0.33219,0.72546 -0.005,1.83134 -0.6473,2.12565 -0.73555,0.33682 -1.6792,0.53966 -2.70009,0.58038 -0.72357,0.0289 -1.32054,0.39244 -0.78879,0.4804 0.12101,0.02 1.16033,0.0773 1.41304,0.0779 0.30175,6.7e-4 0.49743,0.10289 0.98987,0.51703 0.21255,0.17875 0.43251,0.325 0.48881,0.325 0.10219,0 0.58006,0.41814 1.20952,1.05834 0.18314,0.18626 0.37239,0.37676 0.42057,0.42333 0.0482,0.0466 0.28522,0.29166 0.52678,0.54464 0.24156,0.25299 0.5154,0.53102 0.60854,0.61784 0.45676,0.42583 0.55048,0.53717 0.55221,0.65607 0.001,0.0708 0.0764,0.22403 0.16745,0.34045 0.21994,0.28118 0.2278,0.25684 -0.24202,0.74945 -0.45962,0.48189 -0.45164,0.5186 0.17493,0.80495 0.48427,0.22133 0.47014,0.30827 -0.0501,0.30827 -0.37946,0 -0.4893,-0.0335 -0.59226,-0.18047 -0.14257,-0.20355 -0.44194,-0.15854 -0.36031,0.0542 0.0371,0.0967 -0.019,0.12629 -0.23933,0.12629 -0.23398,0 -0.29284,-0.0356 -0.31484,-0.1905 -0.0174,-0.12243 -0.0951,-0.20017 -0.21756,-0.21756 -0.10477,-0.0149 -0.1905,-0.0569 -0.1905,-0.0935 0,-0.14079 -0.41136,-0.50123 -0.60302,-0.52838 -0.13042,-0.0185 -0.19717,-0.0807 -0.18955,-0.17663 0.006,-0.0815 -0.0234,-0.14813 -0.0663,-0.14813 -0.17948,0 -0.83948,-0.76201 -0.96923,-1.11903 -0.0291,-0.0799 -0.12491,-0.16824 -0.21302,-0.19621 -0.0881,-0.028 -0.16139,-0.0959 -0.16286,-0.15097 -0.004,-0.13692 -0.38976,-0.56579 -0.50936,-0.56579 -0.15842,0 -0.5912,-0.32991 -1.26831,-0.96683 -0.73245,-0.68897 -1.27685,-1.13881 -1.94228,-1.60491 -0.25761,-0.18044 -0.49885,-0.38047 -0.53609,-0.4445 -0.0728,-0.12513 -0.50171,-0.37043 -0.64775,-0.37043 -0.17987,0 -0.0816,0.35836 0.15852,0.57802 0.76648,0.70118 2.28531,2.14169 2.60429,2.46998 0.33606,0.34588 0.4965,0.50619 1.07058,1.06968 0.10124,0.0994 0.31514,0.36608 0.47534,0.59267 0.1602,0.22659 0.43643,0.60601 0.61384,0.84314 0.1774,0.23714 0.32256,0.46935 0.32256,0.51604 0,0.0467 0.0797,0.15705 0.17717,0.24524 0.48328,0.43735 0.44193,0.45857 -0.89386,0.45857 -1.00509,0 -1.23065,-0.022 -1.23065,-0.11991 0,-0.0659 -0.1143,-0.17049 -0.254,-0.23233 -0.1397,-0.0618 -0.254,-0.14123 -0.254,-0.17643 0,-0.0352 -0.0546,-0.064 -0.12129,-0.064 -0.0667,0 -0.14486,-0.0743 -0.17367,-0.16501 -0.0301,-0.0949 -0.10176,-0.14606 -0.16854,-0.12044 -0.064,0.0245 -0.1585,-0.0345 -0.21031,-0.13132 -0.0518,-0.0967 -0.17212,-0.1759 -0.26742,-0.1759 -0.0953,0 -0.336,-0.13335 -0.5349,-0.29633 -0.2432,-0.19928 -0.4489,-0.29633 -0.62809,-0.29633 -0.14654,0 -0.26644,-0.0353 -0.26644,-0.0783 0,-0.0431 -0.14887,-0.1669 -0.33082,-0.27516 -0.44433,-0.26438 -1.2622,-0.88455 -1.57016,-1.19061 -0.13749,-0.13663 -0.42324,-0.34139 -0.635,-0.45502 -0.21176,-0.11362 -0.65172,-0.39542 -0.97769,-0.62623 -0.32597,-0.23081 -0.64562,-0.42033 -0.71033,-0.42115 -0.0647,-8.5e-4 -0.16398,-0.0648 -0.22059,-0.14226 -0.061,-0.0834 -0.15969,-0.11898 -0.24217,-0.0873 -0.21001,0.0806 -0.16734,0.2178 0.0876,0.28179 0.12478,0.0313 0.40374,0.23207 0.61991,0.44611 0.21618,0.21405 0.78701,0.75113 1.26851,1.19351 0.4815,0.44238 1.03307,0.96626 1.22571,1.16417 0.19263,0.1979 0.37849,0.35983 0.41302,0.35983 0.0862,0 0.73332,0.68715 0.73332,0.77864 0,0.0405 0.13434,0.153 0.29852,0.24987 0.26213,0.15466 0.46348,0.38589 0.46348,0.53226 0,0.14445 -0.48727,0.0183 -0.69387,-0.17961 -0.23504,-0.22518 -0.36579,-0.10402 -0.13586,0.12591 0.079,0.079 0.0696,0.1016 -0.0423,0.1016 -0.0792,0 -0.14393,-0.03 -0.14393,-0.0667 0,-0.18335 -0.50549,-0.64934 -0.5811,-0.5357 -0.0623,0.0936 -0.0991,0.0779 -0.18252,-0.078 -0.0888,-0.16588 -0.0816,-0.21196 0.0476,-0.30644 0.19724,-0.14423 -0.35414,-0.7277 -0.68767,-0.7277 -0.11273,0 -0.20497,-0.0333 -0.20497,-0.0741 0,-0.0407 -0.0517,-0.0741 -0.11492,-0.0741 -0.0632,0 -0.32477,-0.22708 -0.58125,-0.50461 -0.25648,-0.27754 -0.56672,-0.55036 -0.68941,-0.60626 -0.1227,-0.0559 -0.22308,-0.1533 -0.22308,-0.21642 0,-0.0631 -0.14288,-0.17992 -0.3175,-0.25953 -0.17463,-0.0796 -0.46049,-0.2695 -0.63525,-0.42197 -0.1769,-0.15433 -0.41146,-0.27721 -0.52916,-0.27721 -0.16908,0 -0.21143,-0.0424 -0.21143,-0.21167 0,-0.15522 -0.0451,-0.21166 -0.16933,-0.21166 -0.14675,0 -0.16933,0.0564 -0.16933,0.42333 0,0.23283 0.0336,0.42333 0.0748,0.42333 0.0411,0 0.0945,0.0752 0.11851,0.16718 0.024,0.0919 0.18089,0.24811 0.34854,0.34703 0.17683,0.10433 0.30482,0.24619 0.30482,0.33784 0,0.17904 0.23743,0.33329 0.51302,0.33329 0.16067,0 0.17873,0.0338 0.13502,0.25233 -0.0396,0.19795 -0.0136,0.27204 0.12047,0.34381 0.094,0.0503 0.20599,0.18369 0.24884,0.29639 0.053,0.13933 0.12096,0.18837 0.21248,0.15326 0.0828,-0.0318 0.11401,-0.10441 0.0811,-0.18889 -0.0632,-0.16232 -0.0639,-0.16726 -0.051,-0.4124 0.0158,-0.30052 0.0903,-0.24867 1.12846,0.78566 1.39836,1.39318 1.44579,1.30984 -0.74536,1.30984 -0.99683,0 -1.81241,-0.0326 -1.81241,-0.0724 0,-0.0398 -0.24712,-0.33197 -0.54915,-0.64924 -0.30203,-0.31727 -0.57217,-0.64939 -0.60031,-0.73806 -0.0281,-0.0887 -0.0967,-0.14374 -0.1524,-0.12237 -0.0699,0.0268 -0.0909,-0.0498 -0.0677,-0.24788 0.0423,-0.36277 0.0272,-0.36617 0.60761,0.13661 0.26876,0.23284 0.51245,0.42334 0.54153,0.42334 0.0291,0 0.23346,0.12418 0.45417,0.27595 1.16436,0.80069 1.37713,0.60035 0.36058,-0.3395 -0.95097,-0.87921 -1.4993,-1.43908 -1.55721,-1.59 -0.0263,-0.0684 -0.0992,-0.12445 -0.16203,-0.12445 -0.0628,0 -0.26408,-0.13332 -0.44716,-0.29627 -0.18308,-0.16295 -0.37728,-0.2963 -0.43154,-0.29633 -0.0543,-4e-5 -0.20666,-0.11676 -0.33866,-0.25938 -0.36768,-0.39724 -0.46514,-0.42692 -0.97096,-0.29571 -0.54089,0.1403 -0.50484,0.16211 -0.41205,-0.24931 0.0756,-0.33538 0.0417,-0.49796 -0.0681,-0.32646 -0.0324,0.0506 -0.1405,0.11741 -0.24025,0.14852 -0.0998,0.0311 -0.2002,0.12196 -0.22323,0.20191 -0.023,0.0799 -0.0693,0.21203 -0.10287,0.29353 -0.0432,0.10494 -0.0213,0.14816 0.0751,0.14816 0.1608,0 0.18215,0.13427 0.0302,0.19014 -0.17144,0.063 -0.3175,-0.0235 -0.3175,-0.18813 0,-0.0843 -0.0571,-0.17515 -0.127,-0.20196 -0.15048,-0.0577 -0.17685,0.2009 -0.035,0.3428 0.11141,0.1114 -0.002,0.19758 -0.43071,0.32865 -0.29633,0.0905 -0.29633,0.0905 0.19763,0.15515 0.27168,0.0356 0.51591,0.0427 0.54274,0.0159 0.0268,-0.0268 0.10209,0.0273 0.16725,0.12037 0.0862,0.12305 0.17504,0.15494 0.32605,0.11704 0.26128,-0.0656 0.20994,0.14041 -0.066,0.26486 -0.10108,0.0456 -0.24752,0.19718 -0.32544,0.33688 -0.0977,0.17524 -0.19777,0.24775 -0.32261,0.23383 -0.18102,-0.0202 -0.23597,0.0639 -0.11852,0.18137 0.0343,0.0343 0.0629,0.12062 0.0635,0.19176 5.9e-4,0.0711 0.1652,0.21725 0.36579,0.32468 0.20059,0.10744 0.32799,0.21803 0.28312,0.24577 -0.0449,0.0277 -0.0684,0.11706 -0.0523,0.19851 0.12593,0.63677 0.0848,0.59576 0.60313,0.60195 0.49579,0.006 0.76975,0.12962 0.50884,0.22975 -0.0776,0.0298 -0.14116,0.10724 -0.14116,0.1721 0,0.1895 -1.65554,0.16921 -1.7286,-0.0212 -0.0294,-0.0765 -0.0772,-0.11531 -0.10629,-0.0862 -0.0695,0.0695 -0.36644,-0.2751 -0.36644,-0.42529 0,-0.0642 -0.0573,-0.1387 -0.1274,-0.16559 -0.18004,-0.0691 -0.37977,-0.53751 -0.34692,-0.81363 0.0378,-0.31788 -0.0911,-0.29549 -0.16222,0.0282 -0.0573,0.261 -0.0573,0.261 -0.25903,0.0715 -0.13604,-0.1278 -0.18692,-0.24844 -0.15628,-0.37053 0.0606,-0.24157 -0.26868,-0.57278 -0.35244,-0.35449 -0.12205,0.31807 -0.96638,-0.16524 -0.96638,-0.55317 0,-0.0512 -0.0788,0.007 -0.17516,0.12955 -0.27368,0.34792 -0.0922,0.63642 0.42916,0.68233 0.09,0.008 0.1205,0.0925 0.10469,0.29024 -0.019,0.23785 8.7e-4,0.27169 0.13472,0.22921 0.16634,-0.0528 0.94498,0.50641 0.9456,0.67911 1.7e-4,0.0501 0.0956,0.18056 0.21199,0.28993 0.50053,0.47021 0.3873,0.508 -1.52238,0.508 -1.73406,0 -1.73406,0 -1.78817,-0.21561 -0.0756,-0.30121 -0.002,-0.33676 0.35083,-0.16936 0.27953,0.13265 0.3188,0.13361 0.45419,0.0111 0.21588,-0.19537 0.32883,-0.16437 0.28259,0.0775 -0.0428,0.22371 0.17734,0.31553 0.2537,0.10584 0.0923,-0.25342 -0.18188,-0.65617 -0.44666,-0.65617 -0.14938,0 -0.27668,-0.0528 -0.30496,-0.12651 -0.0699,-0.18214 -0.20014,-0.069 -0.20014,0.17384 0,0.20488 -0.1932,0.28886 -0.29302,0.12736 -0.0428,-0.0692 -0.52927,-0.34402 -0.60898,-0.34402 -0.0161,0 -0.0293,0.0762 -0.0293,0.16933 0,0.11117 -0.0564,0.16933 -0.16434,0.16933 -0.24767,0 -0.2804,-0.13078 -0.1102,-0.44031 0.29533,-0.53708 0.40118,-0.66035 0.56705,-0.66035 0.14451,0 0.15034,-0.0151 0.0431,-0.11138 -0.22794,-0.20477 -0.59138,-0.32381 -0.62776,-0.20561 -0.10265,0.33362 -0.12195,0.56672 -0.0506,0.61084 0.1455,0.0899 -0.005,0.30736 -0.17536,0.2533 -0.10902,-0.0346 -0.1593,-0.009 -0.1593,0.0802 0,0.098 -0.0792,0.12595 -0.31608,0.11154 -0.24306,-0.0148 -0.32274,0.015 -0.34488,0.12893 -0.0236,0.12153 0.0331,0.14817 0.31536,0.14817 0.25247,0 0.37234,0.0451 0.44991,0.16933 0.0618,0.0989 0.19745,0.16933 0.32626,0.16933 0.19839,0 0.50076,0.22131 0.50076,0.3665 0,0.0942 -0.57837,0.0638 -0.63857,-0.0336 -0.0307,-0.0497 -0.11402,-0.0681 -0.18506,-0.0409 -0.071,0.0273 -0.17666,0.0102 -0.2347,-0.038 -0.11429,-0.0949 -0.381,-0.0292 -0.381,0.0937 0,0.0416 -0.20955,0.0756 -0.46567,0.0756 -0.40045,0 -0.46567,-0.0224 -0.46567,-0.16028 0,-0.17083 -0.14363,-0.26185 -0.3175,-0.2012 -0.0582,0.0203 -0.10583,0.10995 -0.10583,0.1992 0,0.19734 -1.82349,0.25225 -2.01507,0.0607 -0.079,-0.079 -0.1016,-0.079 -0.1016,0 0,0.1839 -0.74189,0.129 -0.80166,-0.0593 -0.0493,-0.15534 -0.43989,-0.31909 -0.53477,-0.2242 -0.0255,0.0256 0.017,0.0464 0.0947,0.0464 0.0847,0 0.14111,0.0677 0.14111,0.16934 0,0.14922 -0.0503,0.16715 -0.42334,0.15092 -0.42333,-0.0184 -0.42333,-0.0184 -0.42333,-0.54554 z m 5.41867,0.25936 c 0,-0.16427 -0.4228,-0.25661 -0.51225,-0.11188 -0.0394,0.0637 -0.0351,0.15742 0.01,0.21128 0.1057,0.12737 0.50262,0.0489 0.50262,-0.0994 z m 3.89459,-0.58429 c 0.12434,-0.23232 0.0744,-0.3534 -0.10013,-0.24273 -0.0613,0.0389 -0.14004,0.076 -0.17496,0.0826 -0.0349,0.007 -0.0839,0.0166 -0.10882,0.0225 -0.0683,0.016 0.12569,0.34925 0.20332,0.34925 0.0371,0 0.11833,-0.0952 0.18059,-0.21154 z m -7.16205,-0.33879 c -0.15972,-0.24377 -0.2277,-0.26 -0.37013,-0.0884 -0.14443,0.17402 -0.0361,0.30005 0.25787,0.30005 0.24822,0 0.24944,-0.002 0.11226,-0.21167 z m 1.90685,-0.0115 c 0.17649,-0.0353 0.25432,-0.0927 0.22595,-0.16662 -0.0527,-0.1374 0.10765,-0.24975 0.30916,-0.2166 0.0815,0.0134 0.14816,-0.0211 0.14816,-0.0766 0,-0.0996 0.0766,-0.0953 1.03717,0.0581 0.34909,0.0558 0.37722,0.008 0.21417,-0.36597 -0.22424,-0.51391 -0.65867,-0.74728 -0.65867,-0.35383 0,0.0931 0.0381,0.14579 0.0847,0.11701 0.0466,-0.0288 0.0847,-0.0167 0.0847,0.0269 0,0.0436 -0.16513,0.0607 -0.36697,0.0379 -0.24748,-0.0279 -0.45673,0.005 -0.64264,0.10119 -0.15162,0.0784 -0.32692,0.12289 -0.38956,0.0988 -0.0626,-0.024 -0.12812,-0.001 -0.14552,0.0512 -0.0201,0.0604 -0.076,0.0673 -0.15364,0.019 -0.14314,-0.089 -0.5104,-0.0578 -0.62577,0.0532 -0.0442,0.0426 -0.15853,0.0777 -0.254,0.078 -0.22355,8.4e-4 -0.42671,0.38864 -0.24094,0.45992 0.21761,0.0835 0.61859,0.0513 0.59654,-0.0478 -0.04,-0.17985 0.20126,-0.17823 0.24831,0.002 0.0502,0.19209 0.11468,0.20725 0.52892,0.1244 z m 3.98847,-0.88445 c -0.16122,-0.13587 -0.35807,-0.24704 -0.43744,-0.24704 -0.0794,0 -0.16364,-0.0476 -0.18726,-0.10583 -0.0323,-0.0796 -0.0649,-0.0744 -0.13144,0.0212 -0.11366,0.16311 0.20369,0.49854 0.6013,0.63557 0.42309,0.14581 0.5028,-0.0106 0.15484,-0.30386 z m -0.18963,-0.89132 c 0.14911,-0.0298 0.2711,-0.0914 0.2711,-0.13683 0,-0.0809 -0.42942,-0.0528 -0.9892,0.0648 -0.23675,0.0497 -0.26439,0.0369 -0.22719,-0.10537 0.0364,-0.13908 -0.23447,-0.36361 -0.43859,-0.36361 -0.092,0 -0.0273,0.2519 0.0805,0.31329 0.0654,0.0372 0.13205,0.16296 0.14817,0.27937 0.021,0.15139 0.0814,0.21167 0.21216,0.21167 0.10057,0 0.21204,0.0289 0.24772,0.0643 0.0357,0.0353 0.14573,-0.0117 0.24455,-0.10453 0.0988,-0.0928 0.30168,-0.1932 0.45078,-0.22302 z m -1.42223,-0.10913 c 0,-0.11353 -0.43492,-0.27033 -0.6024,-0.21717 -0.28072,0.0891 -0.18315,0.28098 0.1579,0.31055 0.34449,0.0299 0.4445,0.009 0.4445,-0.0934 z m 2.52207,-0.42046 c 0.0237,-0.071 -0.0295,-0.0875 -0.1695,-0.0523 -0.18753,0.0471 -0.20223,0.0286 -0.18212,-0.22914 0.012,-0.15418 -0.0134,-0.41254 -0.0566,-0.57412 -0.05,-0.18705 -0.0483,-0.32394 0.005,-0.37677 0.13294,-0.13294 0.0977,-0.29513 -0.12869,-0.59192 -0.2904,-0.38074 -0.26591,-0.47218 0.0463,-0.17302 0.20406,0.1955 0.27309,0.22279 0.33013,0.1305 0.0405,-0.0656 0.13307,-0.0933 0.21132,-0.0633 0.0808,0.031 0.28102,-0.0361 0.47706,-0.15986 0.59743,-0.37714 0.95822,-0.33028 1.00949,0.13111 0.0482,0.43363 0.18196,0.47568 0.22625,0.0711 0.0358,-0.32724 0.0845,-0.38689 0.21184,-0.25956 0.0724,0.0724 0.0716,0.12668 -0.003,0.21646 -0.13566,0.16345 -0.0318,0.39532 0.17709,0.39532 0.14287,0 0.16291,-0.0397 0.12237,-0.24243 -0.0503,-0.25148 0.2903,-0.54121 0.40949,-0.34834 0.0273,0.0441 0.13339,0.0756 0.23586,0.07 0.10247,-0.006 0.25298,0.0181 0.33447,0.0527 0.0888,0.0377 0.14817,0.026 0.14817,-0.0293 0,-0.0507 -0.0935,-0.11559 -0.20781,-0.14427 -0.14478,-0.0363 -0.23755,-0.14597 -0.30585,-0.36145 -0.0539,-0.17011 -0.25409,-0.45956 -0.44482,-0.64323 -0.28572,-0.27515 -0.34261,-0.38236 -0.32309,-0.60894 0.0221,-0.256 1.7e-4,-0.28133 -0.31746,-0.36685 -0.18764,-0.0505 -0.36407,-0.12893 -0.39206,-0.17423 -0.028,-0.0453 -0.1262,-0.0824 -0.21823,-0.0824 -0.092,0 -0.25954,-0.0604 -0.37228,-0.1343 -0.37436,-0.24529 -0.43993,-0.0311 -0.0824,0.26903 0.31297,0.26275 0.32307,0.28646 0.21111,0.49566 -0.0966,0.18054 -0.0979,0.23826 -0.007,0.32382 0.0875,0.0824 0.11856,0.0821 0.14927,-0.002 0.0654,-0.17829 0.36337,-0.12621 0.36337,0.0635 0,0.15855 -0.0412,0.17835 -0.42333,0.20347 -0.13563,0.009 -0.35272,0.53018 -0.29433,0.7067 0.0193,0.0582 -0.002,0.10583 -0.047,0.10583 -0.0451,0 -0.082,-0.0381 -0.082,-0.0847 0,-0.0466 -0.0572,-0.0847 -0.127,-0.0847 -0.0718,0 -0.127,-0.0758 -0.127,-0.17433 0,-0.0959 0.0381,-0.15079 0.0847,-0.12201 0.15105,0.0934 0.0895,-0.1222 -0.0847,-0.29633 -0.0931,-0.0931 -0.27601,-0.16933 -0.4064,-0.16933 -0.13038,0 -0.27814,-0.0411 -0.32835,-0.0913 -0.16317,-0.16317 -0.57443,-0.0579 -0.60464,0.15479 -0.0205,0.14409 0.015,0.1905 0.14551,0.1905 0.11861,0 0.15733,0.0397 0.12383,0.127 -0.0446,0.11616 0.0574,0.16961 0.25494,0.13356 0.0406,-0.007 0.0517,0.0442 0.0247,0.11473 -0.0279,0.0728 0.0134,0.16471 0.0954,0.21256 0.12142,0.0708 0.10725,0.0847 -0.0882,0.0869 -0.12806,10e-4 -0.23284,-0.0398 -0.23284,-0.0915 0,-0.0604 -0.11368,-0.0777 -0.3175,-0.0484 -0.17462,0.0251 -0.25407,0.0272 -0.17654,0.005 0.17659,-0.0514 0.27284,-0.2865 0.1625,-0.39684 -0.0942,-0.0942 -0.51512,0.1418 -0.51512,0.28874 0,0.0488 -0.0596,0.14836 -0.13245,0.2212 -0.0936,0.0936 -0.10603,0.15885 -0.0423,0.22256 0.0496,0.0496 0.0901,0.15551 0.0901,0.23545 0,0.0799 0.0421,0.15939 0.0936,0.17656 0.0608,0.0203 0.0278,0.17128 -0.0938,0.43008 -0.27845,0.59238 -0.16223,0.79326 0.21887,0.37832 0.3438,-0.37433 0.39871,-0.39354 0.2873,-0.10051 -0.0927,0.24379 0.1095,0.61852 0.3407,0.63145 0.0893,0.005 0.0705,0.0465 -0.0635,0.13999 -0.24515,0.171 -0.24259,0.28157 0.006,0.28157 0.17208,0 0.19214,0.0332 0.15854,0.26206 -0.0398,0.27094 0.54466,0.043 0.64253,-0.2506 z m -2.1169,-0.19294 c 0.0433,0.12979 0.24874,0.1235 0.29497,-0.009 0.0903,-0.25896 -0.0343,-0.31343 -0.6025,-0.26338 -0.68138,0.06 -0.70277,0.0742 -0.34033,0.22613 0.20265,0.0849 0.33279,0.0949 0.45031,0.0344 0.11616,-0.0597 0.17487,-0.0562 0.19755,0.0118 z m -0.78617,-0.49422 c 0.48887,-0.15441 0.58933,-0.21452 0.62014,-0.37109 0.032,-0.16258 -0.41119,-0.12447 -0.89531,0.077 -0.26619,0.11077 -0.43032,0.53772 -0.16933,0.4405 0.0582,-0.0217 0.25823,-0.0876 0.4445,-0.14639 z m 3.34433,-0.50964 c 0,-0.0466 -0.0762,-0.0847 -0.16933,-0.0847 -0.18374,0 -0.21249,-0.0998 -0.0931,-0.32307 0.0611,-0.11432 0.036,-0.14502 -0.127,-0.15481 -0.29344,-0.0176 -0.30538,0.5311 -0.0128,0.58746 0.33854,0.0652 0.40217,0.0613 0.40217,-0.0249 z m 4.64055,-0.91016 c -0.018,-0.0935 -0.10582,-0.14817 -0.23788,-0.14817 -0.13207,0 -0.21988,0.0547 -0.23789,0.14817 -0.0223,0.11576 0.0297,0.14816 0.23789,0.14816 0.20815,0 0.26017,-0.0324 0.23788,-0.14816 z m 1.41083,-0.27147 c 0.0275,-0.0445 0.0983,-0.0625 0.15723,-0.0398 0.059,0.0226 0.19772,-0.0552 0.30838,-0.17303 0.11066,-0.11779 0.24914,-0.21416 0.30773,-0.21416 0.2539,0 0.23215,-0.80816 -0.0244,-0.90661 -0.31065,-0.11921 -0.59155,0.383 -0.28607,0.51144 0.28177,0.11848 0.28177,0.11848 0.10109,0.29916 -0.23385,0.23385 -0.35913,0.22777 -0.63834,-0.031 -0.15354,-0.1423 -0.3259,-0.21167 -0.52593,-0.21167 -0.38371,0 -0.62507,-0.13192 -0.62507,-0.34165 0,-0.0915 -0.0381,-0.16635 -0.0847,-0.16635 -0.0466,0 -0.0847,-0.0531 -0.0847,-0.11804 0,-0.0654 -0.0849,-0.1189 -0.1905,-0.11995 -0.33074,-0.003 -1.10977,-0.23381 -1.14474,-0.33871 -0.0185,-0.0554 -0.0721,-0.10063 -0.11925,-0.10063 -0.0471,0 -0.18684,-0.0705 -0.31044,-0.15677 -0.39662,-0.27666 -0.77507,-0.30244 -0.77507,-0.0528 0,0.1717 0.042,0.20989 0.23283,0.21143 0.12806,0.001 0.32808,0.0764 0.4445,0.16745 0.11642,0.0911 0.27834,0.16641 0.35983,0.16745 0.0815,0.001 0.14817,0.059 0.14817,0.12888 0,0.14449 -0.13272,0.17007 -0.21252,0.041 -0.0958,-0.15502 -0.19139,-0.006 -0.17721,0.27545 0.0107,0.21369 0.0517,0.27626 0.18064,0.27626 0.12246,0 0.1614,-0.0506 0.14659,-0.1905 -0.0259,-0.24453 0.12128,-0.24316 0.34966,0.003 0.26495,0.28589 0.19332,0.50177 -0.1457,0.43909 -0.44425,-0.0821 -0.67793,0.15096 -0.33112,0.3303 0.34309,0.17742 0.66484,0.17582 0.73371,-0.004 0.0413,-0.10759 0.0777,-0.11765 0.15299,-0.0423 0.12084,0.12085 0.40363,0.13077 0.40363,0.0142 0,-0.0466 0.093,-0.0847 0.20667,-0.0847 0.11367,0 0.23021,-0.0381 0.25899,-0.0847 0.0847,-0.13701 0.28098,-0.0971 0.33331,0.0678 0.0266,0.0839 0.18158,0.20062 0.34437,0.25948 0.1628,0.0589 0.29599,0.14267 0.29599,0.18622 0,0.10339 0.14514,0.10216 0.20938,-0.002 z m 2.92084,-4.3e-4 c 0.12038,-0.0761 0.0698,-0.20386 -0.0893,-0.22555 -0.0427,-0.006 -0.11644,-0.0153 -0.1639,-0.0212 -0.049,-0.006 -0.0633,-0.10212 -0.0332,-0.22225 0.0564,-0.22479 -0.80634,-0.34149 -0.9389,-0.127 -0.0992,0.16054 -0.21167,0.0841 -0.21167,-0.14393 0,-0.16725 -0.0252,-0.20343 -0.0938,-0.1348 -0.26699,0.26699 0.0742,0.69385 0.52989,0.66285 0.33788,-0.023 0.45494,0.004 0.56427,0.13211 0.1531,0.17881 0.25147,0.19678 0.43653,0.0797 z m -6.39609,-1.37098 c 0.0733,-0.14682 0.1332,-0.27935 0.1332,-0.29447 0,-0.0888 -0.7648,0.0234 -0.80093,0.11752 -0.16163,0.42121 0.46327,0.58684 0.66773,0.17698 z m 8.34886,0.0921 c 0.15107,-0.28228 -0.25926,-0.65181 -0.56771,-0.51127 -0.22325,0.10171 -0.22325,0.10171 -0.0409,0.22941 0.10027,0.0702 0.18232,0.17952 0.18232,0.24285 0,0.10423 0.11206,0.18955 0.27219,0.20724 0.0333,0.004 0.10264,-0.072 0.15413,-0.16823 z m -1.54957,-0.17505 c 0.0528,-0.0528 0.18422,-0.1004 0.2921,-0.10583 0.53708,-0.0271 0.16432,-0.56021 -0.39166,-0.56021 -0.10769,0 -0.23996,-0.0532 -0.29394,-0.11826 -0.054,-0.065 -0.17294,-0.0987 -0.26437,-0.0748 -0.11456,0.03 -0.16622,9.6e-4 -0.16622,-0.0934 0,-0.0753 -0.0572,-0.13687 -0.127,-0.13687 -0.14705,0 -0.16798,0.27321 -0.0393,0.51357 0.0928,0.17334 0.37466,0.22153 0.46269,0.0791 0.0781,-0.12643 0.18673,-0.10243 0.24698,0.0546 0.0294,0.0766 -0.005,0.20341 -0.0756,0.28184 -0.22527,0.24892 0.1148,0.40188 0.35638,0.1603 z m -1.17856,-0.85651 c -0.0226,-0.23477 -0.0634,-0.27936 -0.27767,-0.30372 -0.13812,-0.0157 -0.33776,-0.12203 -0.44364,-0.23627 -0.15879,-0.17134 -0.22253,-0.19165 -0.36395,-0.11596 -0.13523,0.0724 -0.18203,0.0642 -0.22158,-0.0389 -0.0276,-0.0719 -0.12226,-0.13065 -0.21041,-0.13065 -0.0881,0 -0.23648,-0.0762 -0.32961,-0.16933 -0.28295,-0.28295 -0.46496,-0.18855 -0.55426,0.28747 -0.0608,0.32389 -0.0581,0.32848 0.16157,0.27336 0.17342,-0.0435 0.22336,-0.025 0.22336,0.0829 0,0.10006 0.0296,0.11519 0.10583,0.054 0.14575,-0.11702 0.65477,-0.0852 0.90688,0.0567 0.11461,0.0645 0.34321,0.12116 0.508,0.1259 0.24306,0.007 0.30473,0.0446 0.32668,0.19912 0.0426,0.30017 0.19838,0.22205 0.1688,-0.0847 z m 8.55435,-0.47713 c 0.0806,-0.0511 0.0308,-0.0872 -0.16933,-0.1229 -1.03061,-0.18365 -3.27331,-0.12196 -2.42484,0.0667 0.56032,0.12458 2.4226,0.16493 2.59417,0.0562 z m -2.6513,-1.10985 c 0.42396,-0.001 0.59359,-0.77884 0.23269,-1.06661 -0.16475,-0.13137 -0.23086,-0.26245 -0.23284,-0.46172 -0.003,-0.31682 -0.20172,-0.44406 -0.27223,-0.17444 -0.0731,0.27948 -0.1962,0.20873 -0.1962,-0.11276 0,-0.28296 0.008,-0.28973 0.28436,-0.24486 0.3993,0.0648 0.74805,-0.71194 0.74725,-1.66427 -2.6e-4,-0.27837 0.14114,-0.53214 0.2691,-0.48304 0.0714,0.0274 0.0922,-0.0481 0.0687,-0.24954 -0.0392,-0.33616 -0.23395,-0.47088 -0.68053,-0.47088 -0.16866,0 -0.40981,-0.0533 -0.53588,-0.11853 -0.12607,-0.0652 -0.31683,-0.11877 -0.42392,-0.11906 -0.10709,-2.5e-4 -0.309,-0.0617 -0.4487,-0.13639 -0.1397,-0.0747 -0.44566,-0.13708 -0.67991,-0.13857 -0.38016,-0.002 -0.44836,-0.0324 -0.635,-0.27881 -0.40865,-0.53963 -1.18276,-0.70446 -1.18276,-0.25185 0,0.0708 -0.0381,0.12881 -0.0847,0.12881 -0.0793,0 -0.13095,-0.61272 -0.0936,-1.10997 0.0131,-0.17383 -0.0384,-0.24377 -0.24124,-0.32777 -0.20288,-0.084 -0.25782,-0.15874 -0.25782,-0.35053 0,-0.20475 -0.0345,-0.24373 -0.21571,-0.24373 -0.11864,0 -0.29962,-0.0888 -0.40217,-0.19733 -0.10255,-0.10853 -0.30805,-0.25019 -0.45666,-0.3148 -0.21659,-0.0942 -0.25082,-0.14083 -0.17253,-0.23517 0.0761,-0.0917 0.0622,-0.14366 -0.0635,-0.23552 -0.12745,-0.0932 -0.1758,-0.0957 -0.23125,-0.012 -0.0945,0.14262 -0.34344,-0.17716 -0.29206,-0.37514 0.0203,-0.0783 -0.0513,-0.22519 -0.15917,-0.32651 -0.11118,-0.10446 -0.17506,-0.239 -0.14753,-0.31075 0.0267,-0.0696 -0.005,-0.1595 -0.0696,-0.1998 -0.0834,-0.0517 -0.12073,-0.26737 -0.12688,-0.73229 -0.0121,-0.91611 -0.0155,-0.93697 -0.18179,-1.10609 -0.0815,-0.0829 -0.20153,-0.25306 -0.26676,-0.37811 -0.0652,-0.12506 -0.14821,-0.20907 -0.1844,-0.1867 -0.0688,0.0425 -0.11228,-0.0708 -0.20639,-0.53777 -0.031,-0.15381 -0.0985,-0.26563 -0.14988,-0.24848 -0.127,0.0423 -0.2503,0.52013 -0.14357,0.55635 0.0457,0.0155 0.0832,0.0619 0.0832,0.10318 0,0.0412 -0.0506,0.0555 -0.11256,0.0318 -0.13323,-0.0511 -0.36456,0.43757 -0.44377,0.93751 -0.0295,0.18626 -0.18391,0.53931 -0.3431,0.78454 -0.65771,1.01313 -0.75347,1.56042 -0.35288,2.01667 0.14944,0.1702 0.279,0.3525 0.28792,0.40512 0.009,0.0526 0.11949,0.40047 0.24571,0.773 0.12622,0.37253 0.24258,0.77258 0.25857,0.889 0.016,0.11642 0.0647,0.37829 0.10813,0.58195 0.0435,0.20365 0.0617,0.50845 0.0404,0.67733 -0.0321,0.25483 0.009,0.36412 0.24229,0.64261 0.24357,0.29094 0.4873,0.78817 0.49132,1.00235 6.8e-4,0.0373 -0.11248,0.10755 -0.2515,0.15602 -0.32303,0.11261 -0.24469,0.2902 0.36804,0.83441 0.23594,0.20955 0.67662,0.6096 0.97929,0.889 0.30267,0.2794 0.66235,0.60325 0.79929,0.71966 0.13694,0.11642 0.38597,0.32771 0.5534,0.46954 0.58111,0.49226 1.23477,0.76158 1.75637,0.72367 0.14664,-0.0106 0.29001,0.0185 0.3186,0.0647 0.0313,0.0506 0.41846,0.0715 0.97201,0.0525 0.66544,-0.0229 0.96182,-0.001 1.07106,0.0788 0.12447,0.091 0.18954,0.0903 0.37004,-0.004 0.12045,-0.0629 0.29652,-0.11452 0.39125,-0.11481 z m -1.14591,-1.40981 c -0.20568,-0.0567 -0.35764,-0.45141 -0.19744,-0.51288 0.1462,-0.0561 0.30071,0.1309 0.24154,0.29234 -0.0242,0.0661 0.0378,0.10583 0.16523,0.10583 0.1122,0 0.22756,0.0381 0.25634,0.0847 0.0514,0.0832 -0.21111,0.10016 -0.46567,0.03 z m -1.00775,-0.4011 c -0.0858,-0.10336 -0.0659,-0.15076 0.11243,-0.26759 0.27186,-0.17812 0.49314,-0.10476 0.45676,0.15144 -0.0328,0.23074 -0.41017,0.30776 -0.56919,0.11615 z m 1.00775,-1.53394 c 0,-0.14638 -0.0975,-0.16497 -0.22045,-0.042 -0.0569,0.0569 -0.1395,0.0438 -0.24977,-0.0396 -0.15483,-0.11709 -0.14603,-0.12478 0.14567,-0.12731 0.17074,-0.001 0.33027,-0.0503 0.35451,-0.10853 0.0628,-0.15072 0.31097,0.17075 0.2515,0.32573 -0.0609,0.15871 -0.28146,0.15227 -0.28146,-0.008 z m -4.65667,2.59375 c 0,-0.1517 -0.35268,-0.51235 -0.78247,-0.80014 -0.24486,-0.16397 -0.70682,-0.5203 -1.02659,-0.79186 -0.96485,-0.81939 -1.09422,-0.89369 -1.44239,-0.82837 -0.64351,0.12072 -1.02478,0.75966 -0.62417,1.04599 0.56354,0.40279 3.87562,1.57732 3.87562,1.37438 z m 6.5738,-9.87616 c 0.0511,-0.13316 -0.10272,-0.37992 -0.23682,-0.37992 -0.13332,0 -0.17975,0.25073 -0.0708,0.38207 0.13361,0.161 0.24526,0.16022 0.30757,-0.002 z m -9.93049,-0.58755 c 0.12321,-0.11419 0.22403,-0.27294 0.22403,-0.35278 0,-0.0798 0.0241,-0.12104 0.0536,-0.0916 0.11188,0.11188 0.79038,-1.1639 1.00411,-1.88801 0.0344,-0.11642 0.26314,-0.68792 0.5084,-1.27 0.82777,-1.96457 0.9319,-2.32802 0.72596,-2.53396 -0.21232,-0.21232 -0.22041,-0.31109 -0.034,-0.41538 0.12237,-0.0685 0.12702,-0.11363 0.0346,-0.33664 -0.14002,-0.33805 -0.0674,-0.53653 0.35968,-0.98291 0.66993,-0.7002 0.81902,-0.8854 0.81902,-1.01738 0,-0.0728 0.0476,-0.13266 0.10583,-0.13298 0.19332,-0.001 0.77766,-1.00905 0.87917,-1.51656 0.0723,-0.36147 -0.0589,-0.29872 -0.35449,0.16959 -0.23349,0.36987 -0.37651,0.42547 -0.37651,0.14638 0,-0.2996 -0.47823,0.20559 -0.76857,0.81189 -0.13161,0.27484 -0.31733,0.58946 -0.4127,0.69914 -0.10358,0.11913 -0.1734,0.31848 -0.1734,0.49512 0,0.23924 -0.0323,0.29569 -0.16933,0.29569 -0.12418,0 -0.16933,0.0564 -0.16933,0.21166 0,0.11642 0.0469,0.21167 0.10432,0.21167 0.0574,0 -0.0327,0.0931 -0.20013,0.20688 -0.19291,0.13109 -0.32262,0.29776 -0.35406,0.45497 -0.0577,0.2887 -0.31399,0.42937 -0.43498,0.23878 -0.0734,-0.11555 -0.35684,0.59312 -0.8082,2.02037 -0.15424,0.48772 0.003,-0.53358 0.18064,-1.17424 0.0921,-0.33207 0.20476,-0.75616 0.25028,-0.94243 0.17167,-0.70266 0.36921,-0.98547 0.39916,-0.5715 0.0254,0.35051 0.18563,0.52108 0.18563,0.19756 0,-0.0892 0.0373,-0.17498 0.0828,-0.1905 0.0943,-0.0322 0.7639,-1.88489 0.7639,-2.11368 0,-0.27629 -0.44413,0.2335 -0.5085,0.58368 -0.0448,0.24377 -0.073,0.28226 -0.12283,0.16759 -0.0383,-0.0882 -0.0105,-0.26287 0.0682,-0.42869 0.18202,-0.38358 0.27424,-0.98879 0.15067,-0.98879 -0.0525,0 -0.0955,0.037 -0.0955,0.0821 0,0.0452 -0.14023,0.0738 -0.31163,0.0635 -0.269,-0.0161 -0.3298,0.0161 -0.4445,0.23537 -0.0731,0.1397 -0.14147,0.26895 -0.15199,0.28723 -0.0105,0.0183 -0.0703,-0.009 -0.13277,-0.0611 -0.12033,-0.0999 -0.48311,0.0824 -0.48311,0.24276 0,0.10406 -0.53272,0.8315 -0.61383,0.83819 -0.0952,0.008 -0.0765,-0.40006 0.0212,-0.46042 0.0466,-0.0288 0.0821,-0.13581 0.0789,-0.23783 -0.006,-0.18551 -0.006,-0.18551 -0.0954,5e-5 -0.1538,0.31827 -0.3374,0.32101 -0.3201,0.005 0.008,-0.15125 0.0112,-0.32262 0.006,-0.38083 -0.0123,-0.15151 -0.26257,-0.13134 -0.26257,0.0212 0,0.0699 -0.0422,0.127 -0.0937,0.127 -0.0515,0 -0.0723,-0.0559 -0.046,-0.12429 0.0962,-0.25059 -0.14547,-0.22663 -0.82043,0.0813 -0.37995,0.17336 -0.88131,0.40205 -1.11415,0.5082 -0.79031,0.3603 -1.24194,1.09718 -1.18435,1.93241 0.0198,0.28784 0.0373,0.6322 0.0387,0.76524 0.002,0.18392 0.0343,0.22973 0.13484,0.19116 0.11225,-0.0431 0.12845,0.025 0.10734,0.45106 -0.0256,0.51729 0.0501,0.74353 0.15445,0.46151 0.0326,-0.0882 0.0951,-0.18435 0.13893,-0.21376 0.0438,-0.0294 0.0942,-0.17863 0.112,-0.3316 0.0398,-0.34178 0.11419,-0.43582 0.12516,-0.15821 0.004,0.11254 0.0195,0.54752 0.0335,0.96662 0.0609,1.8236 0.17948,2.45334 0.40341,2.14184 0.0562,-0.0782 0.0644,-0.0649 0.0284,0.0458 -0.0294,0.0906 0.0164,0.2408 0.10962,0.35931 0.17367,0.22079 0.34427,0.0901 0.45586,-0.34919 0.0232,-0.0912 0.0465,0.0152 0.0519,0.23636 0.0101,0.41488 0.20532,0.38937 0.37346,-0.0488 0.0299,-0.0779 0.0937,-0.1417 0.1417,-0.1417 0.12742,0 0.10673,0.1325 -0.0397,0.254 -0.0811,0.0673 -0.127,0.25458 -0.127,0.51837 0,0.42423 0.0951,0.52605 0.24722,0.2648 0.0692,-0.11887 0.0868,-0.082 0.0889,0.18627 0.003,0.43164 0.16597,0.29559 0.23161,-0.19373 0.0255,-0.19001 0.11773,-0.41008 0.20498,-0.48904 0.0873,-0.079 0.15986,-0.2234 0.16134,-0.32096 0.004,-0.24442 0.2171,-0.50495 0.36659,-0.44759 0.0986,0.0378 0.10727,0.11244 0.0433,0.37045 -0.1887,0.76077 -0.21954,1.20307 -0.0874,1.25377 0.1832,0.0703 0.24351,-0.0275 0.33896,-0.54967 0.0961,-0.52562 0.23533,-0.93133 0.31963,-0.93133 0.11393,0 -0.0608,1.52172 -0.21582,1.87915 -0.35306,0.81422 -0.30986,1.09517 0.10874,0.70722 z m 10.89203,0.13214 c 0,-0.0415 0.10226,-0.10116 0.22725,-0.13253 0.12499,-0.0314 0.44097,-0.20695 0.70218,-0.39017 0.26121,-0.18323 0.54245,-0.33315 0.62498,-0.33315 0.35507,0 0.69743,-0.3207 0.85859,-0.80427 0.0727,-0.21801 0.13273,-0.25796 0.42333,-0.28153 0.18627,-0.0151 0.36914,-0.0818 0.40637,-0.14817 0.0388,-0.0692 0.20132,-0.12233 0.381,-0.12452 0.34292,-0.004 1.21446,-0.4089 0.89516,-0.41568 -0.0991,-0.002 -0.23083,-0.0649 -0.2928,-0.13959 -0.14043,-0.1692 -1.75726,-0.13133 -2.13056,0.0499 -0.25679,0.12467 -0.32192,0.45689 -0.10584,0.53981 0.26262,0.10078 0.11707,0.21775 -0.23283,0.18712 -0.30648,-0.0268 -0.43188,0.0175 -0.84571,0.29872 -0.3329,0.22625 -0.5779,0.33021 -0.77817,0.33021 -0.16076,0 -0.31584,0.0381 -0.34462,0.0847 -0.0288,0.0466 -0.11984,0.0847 -0.20236,0.0847 -0.21168,0 -0.36483,0.33377 -0.33284,0.72537 0.0237,0.29038 0.0516,0.32957 0.2177,0.30647 0.12759,-0.0177 0.1905,0.0172 0.1905,0.10583 0,0.0759 0.0722,0.13233 0.16933,0.13233 0.0931,0 0.16934,-0.034 0.16934,-0.0755 z m -0.86195,-0.53835 c -0.0178,-0.12503 -0.0852,-0.1905 -0.19639,-0.1905 -0.11114,0 -0.17863,0.0655 -0.19638,0.1905 -0.0222,0.15627 0.0131,0.1905 0.19638,0.1905 0.1833,0 0.21859,-0.0342 0.19639,-0.1905 z m -5.83229,-1.41414 c -0.14749,-0.23971 -0.28524,-0.41877 -0.30609,-0.39792 -0.10421,0.10421 0.0999,0.66885 0.29817,0.82479 0.31564,0.24829 0.3188,0.0784 0.008,-0.42687 z m 12.32928,-0.20432 c 0.0594,-0.23671 -0.10249,-0.90037 -0.21964,-0.90037 -0.13624,0 -0.0912,-0.21678 0.0879,-0.42333 0.23323,-0.26892 -0.0118,-1.01363 -0.33403,-1.01535 -0.4969,-0.003 -0.67067,0.55208 -0.29383,0.93799 0.27078,0.27731 0.29171,0.32962 0.19426,0.48567 -0.0931,0.14899 -0.0858,0.20073 0.0488,0.34947 0.0869,0.096 0.13595,0.19664 0.10899,0.2236 -0.085,0.085 0.11759,0.54262 0.24017,0.54262 0.0644,0 0.13972,-0.0901 0.16737,-0.2003 z m -13.44126,-0.40615 c 0.0343,-0.28599 -0.1996,-0.4918 -0.27803,-0.24468 -0.0709,0.22338 0.026,0.53139 0.15393,0.48942 0.0543,-0.0178 0.1101,-0.12793 0.1241,-0.24474 z m 10.49438,-1.35014 c 0.24448,-0.23678 0.4445,-0.46184 0.4445,-0.50015 0,-0.14647 -0.69623,0.20942 -0.76535,0.39122 -0.0394,0.1036 -0.15,0.21324 -0.2458,0.24364 -0.0958,0.0304 -0.17418,0.10987 -0.17418,0.17658 0,0.23943 0.30417,0.11162 0.74083,-0.31129 z m -17.91394,-4.66522 c 0.0426,-0.19976 0.14735,-0.72514 0.23285,-1.16753 0.17784,-0.92011 0.45125,-1.95027 0.69517,-2.61921 0.34545,-0.94741 0.94997,-2.41996 1.01022,-2.46079 0.0344,-0.0233 0.17108,-0.25675 0.30384,-0.51881 0.13275,-0.26206 0.41273,-0.71926 0.62217,-1.016 0.20944,-0.29674 0.41899,-0.60169 0.46566,-0.67767 0.78146,-1.27215 2.90892,-3.3367 3.61221,-3.50539 0.12393,-0.0297 0.32154,-0.16203 0.43912,-0.29399 0.2612,-0.29315 0.72264,-0.36919 2.23537,-0.36837 0.57044,3.2e-4 1.03717,-0.0237 1.03717,-0.0533 0,-0.23874 -1.65875,-0.34751 -2.70934,-0.17765 -1.19277,0.19284 -3.30261,1.35135 -3.03916,1.66879 0.11541,0.13907 0.0309,0.27477 -0.23382,0.37542 -0.1147,0.0436 -0.18448,0.11821 -0.15507,0.16579 0.05,0.081 -0.65593,0.84152 -0.78736,0.84821 -0.0546,0.003 -0.4793,0.61746 -1.16092,1.68026 -0.1397,0.21782 -0.33972,0.50482 -0.4445,0.63778 -0.10477,0.13295 -0.1905,0.29082 -0.1905,0.35081 0,0.06 -0.0888,0.21679 -0.19726,0.34842 -0.10849,0.13163 -0.22428,0.29648 -0.25732,0.36633 -0.033,0.0699 -0.11516,0.22225 -0.18249,0.33867 -0.0673,0.11641 -0.123,0.31612 -0.12368,0.44378 -7.6e-4,0.13943 -0.0689,0.27434 -0.17058,0.33787 -0.0931,0.0582 -0.16934,0.17278 -0.16934,0.25471 0,0.0819 -0.0381,0.14897 -0.0847,0.14897 -0.0466,0 -0.0847,0.16678 -0.0847,0.37063 0,0.22616 -0.0495,0.41172 -0.127,0.47604 -0.0699,0.058 -0.127,0.19732 -0.127,0.30968 0,0.11235 -0.0604,0.29651 -0.1343,0.40924 -0.0739,0.11273 -0.11404,0.23773 -0.0893,0.27779 0.0248,0.0401 -0.0674,0.4894 -0.20478,0.99856 -0.19672,0.72908 -0.24643,1.0786 -0.234,1.64539 0.0215,0.97887 0.10321,1.10976 0.25326,0.40553 z m 9.01205,-0.89236 c 0.19168,-0.26547 0.87973,-1.57924 0.87973,-1.67977 0,-0.15551 -0.53483,0.45837 -0.65207,0.74844 -0.0706,0.17462 -0.16228,0.3175 -0.20379,0.3175 -0.0415,0 -0.0755,0.0686 -0.0755,0.1524 0,0.0838 -0.0338,0.18859 -0.0752,0.23283 -0.11494,0.12302 -0.19987,0.46143 -0.11581,0.46143 0.0409,0 0.1501,-0.10477 0.24257,-0.23283 z m -4.66594,30.0355 c -0.084,-0.18627 -0.18503,-0.33867 -0.22452,-0.33867 -0.0395,0 -0.0718,-0.0762 -0.0718,-0.16933 0,-0.0931 -0.0408,-0.16933 -0.0906,-0.16933 -0.0498,0 -0.0784,-0.0857 -0.0635,-0.1905 0.0178,-0.12504 0.0853,-0.1905 0.19639,-0.1905 0.11114,0 0.17863,-0.0655 0.19639,-0.1905 0.0432,-0.304 0.38308,-0.11483 0.40491,0.22535 0.005,0.074 0.0143,0.2202 0.0212,0.32498 0.007,0.11118 0.0678,0.1905 0.14523,0.1905 0.073,0 0.25395,0.12666 0.40216,0.28146 0.14822,0.1548 0.33616,0.30601 0.41765,0.33601 0.34679,0.12767 0.11809,0.2292 -0.51631,0.2292 -0.66447,0 -0.66447,0 -0.81719,-0.33867 z m 17.53261,-0.17042 c -0.0317,-0.27999 -0.0313,-0.55159 7.6e-4,-0.60354 0.10201,-0.16505 0.22707,0.18057 0.23897,0.66042 0.0157,0.63394 -0.16648,0.59072 -0.23975,-0.0569 z m 0.60264,0.15087 c -0.052,-0.38782 0.002,-0.5552 0.0813,-0.25192 0.0269,0.10274 0.0818,0.1868 0.12203,0.1868 0.0676,0 0.0992,-0.093 0.187,-0.55033 0.0325,-0.16933 0.0325,-0.16933 0.10208,0 0.0383,0.0931 0.19655,0.31232 0.35177,0.48708 0.3887,0.43763 0.36285,0.48659 -0.25697,0.48659 -0.53918,0 -0.53918,0 -0.58723,-0.35822 z m 1.97308,0.0619 c -0.19507,-0.16298 -0.40823,-0.29633 -0.47367,-0.29633 -0.0654,0 -0.11899,-0.039 -0.11899,-0.0868 0,-0.0477 -0.0952,-0.12298 -0.21167,-0.16724 -0.26559,-0.10098 -0.28776,-0.28956 -0.0242,-0.20591 0.41007,0.13015 1.4212,0.84706 1.4212,1.00766 0,0.12909 -0.27879,0.0108 -0.59267,-0.25142 z m 1.15164,-0.64836 c -0.0746,-0.10651 -0.13564,-0.28164 -0.13564,-0.3892 0,-0.10755 -0.0569,-0.33172 -0.12643,-0.49815 -0.13424,-0.32128 -0.10868,-0.45395 0.0875,-0.45395 0.12772,0 0.1486,0.0674 0.28689,0.92576 0.0996,0.61837 0.0802,0.69033 -0.1123,0.41554 z m -1.88958,-0.33511 c -0.0519,-0.052 -0.1834,-0.13781 -0.2921,-0.19079 -0.10869,-0.053 -0.28284,-0.26515 -0.38699,-0.47149 -0.11691,-0.23164 -0.28213,-0.41419 -0.43183,-0.47714 -0.23678,-0.0995 -0.36768,-0.28096 -0.39775,-0.5512 -0.008,-0.0738 -0.1304,-0.37855 -0.27154,-0.67733 -0.14114,-0.29878 -0.3232,-0.72932 -0.40456,-0.95674 -0.0814,-0.22742 -0.20952,-0.47829 -0.28478,-0.55748 -0.1891,-0.19897 -0.34851,-0.48539 -0.34851,-0.62618 0,-0.0648 -0.0571,-0.16521 -0.127,-0.22318 -0.0719,-0.0597 -0.12535,-0.23871 -0.1232,-0.41253 0.004,-0.36128 0.41909,0.0325 1.14752,1.08987 0.20853,0.30268 0.68301,0.96729 1.0544,1.47691 0.37139,0.50961 0.7132,1.06747 0.75957,1.23967 0.0464,0.1722 0.2554,0.53343 0.46451,0.80272 0.44107,0.56801 0.13421,1.02683 -0.35774,0.53489 z m -1.92876,-0.47703 c -0.0274,-0.17462 -0.0662,-0.42227 -0.0864,-0.55033 -0.0408,-0.2592 0.0743,-0.31475 0.17545,-0.0847 0.0948,0.21554 0.12159,0.9525 0.0347,0.9525 -0.0407,0 -0.0964,-0.14287 -0.12373,-0.3175 z m -18.79667,-0.4451 c -0.0564,-0.0913 0.0305,-0.13251 0.40745,-0.1934 0.18249,-0.0295 0.22677,-0.01 0.1905,0.0847 -0.026,0.0677 -0.0472,0.13906 -0.0472,0.15853 0,0.0759 -0.50102,0.0305 -0.55071,-0.0499 z m 1.56461,-0.13191 c -0.10681,-0.28093 -0.1054,-0.29082 0.0415,-0.29082 0.14604,0 0.32988,0.30538 0.2559,0.42508 -0.0897,0.14509 -0.21217,0.0898 -0.29735,-0.13426 z m -0.55089,-0.50249 c -0.0218,-0.0699 -0.0539,-0.17462 -0.0712,-0.23283 -0.0182,-0.0609 0.0503,-0.1108 0.16127,-0.11754 0.22755,-0.0138 0.35247,0.35199 0.14712,0.4308 -0.17452,0.067 -0.1931,0.0607 -0.23718,-0.0804 z m 22.06962,-0.57533 c -0.191,-0.29314 -0.36919,-0.66462 -0.396,-0.8255 -0.0765,-0.45936 -0.22836,-1.04627 -0.2947,-1.13917 -0.0333,-0.0466 -0.0806,-0.27516 -0.10532,-0.508 -0.0644,-0.60719 0.3291,0.18404 0.83829,1.68576 0.20667,0.60953 0.39227,1.15587 0.41244,1.21408 0.0956,0.27596 -0.14213,0.0526 -0.45471,-0.42717 z m -1.50963,0.13083 c -0.16143,-0.17462 -0.34798,-0.42122 -0.41455,-0.54799 -0.0666,-0.12677 -0.35409,-0.50777 -0.63892,-0.84667 -0.28483,-0.33889 -0.59062,-0.78762 -0.67954,-0.99717 -0.12081,-0.28469 -0.63709,-0.85445 -2.04234,-2.25389 -2.31418,-2.30462 -3.30634,-3.41831 -3.16828,-3.55637 0.20017,-0.20017 4.57449,4.01005 4.84903,4.66713 0.0634,0.15176 0.17223,0.29778 0.24183,0.32448 0.0696,0.0267 0.22222,0.20013 0.33916,0.38538 0.11694,0.18525 0.31506,0.38709 0.44026,0.44854 0.14049,0.069 0.33848,0.32243 0.51714,0.66206 0.15922,0.30269 0.47708,0.8435 0.70635,1.20182 0.57058,0.89172 0.48149,1.19595 -0.15014,0.51268 z m -21.1754,-0.12276 c -0.12511,-0.12511 -0.13119,-0.29346 -0.0132,-0.36636 0.12378,-0.0765 0.33496,0.11831 0.33496,0.30899 0,0.1797 -0.16923,0.20987 -0.32173,0.0574 z m 21.72358,-1.94893 c -0.48704,-0.74411 -1.79183,-4.04547 -1.59888,-4.04547 0.19303,0 1.32393,2.55983 1.66276,3.76373 0.13494,0.47945 0.11708,0.55821 -0.0639,0.28174 z m -7.79572,-0.81026 c -0.24134,-0.2519 -0.31566,-0.69521 -0.11655,-0.69521 0.18079,0 0.46608,0.36045 0.49556,0.62612 0.0368,0.33149 -0.10317,0.357 -0.37901,0.0691 z m 6.41083,-0.81116 c -0.43658,-0.51074 -0.93249,-1.47639 -0.81734,-1.59154 0.11011,-0.11011 0.40339,0.27679 0.86413,1.13998 0.4273,0.80055 0.4083,0.98397 -0.0468,0.45156 z M 118.1405,123.40323 c -0.12059,-0.56059 -0.52902,-1.25254 -0.55584,-0.9417 -0.0147,0.17041 -0.0151,0.16591 0.0489,0.61207 0.037,0.2581 0.0284,0.39237 -0.0229,0.36062 -0.10059,-0.0622 -0.19789,-0.57492 -0.19217,-1.01273 0.002,-0.17906 -0.035,-0.39893 -0.083,-0.48858 -0.12038,-0.22492 -0.0258,-0.34967 0.17163,-0.22638 0.12258,0.0765 0.188,0.0746 0.2884,-0.009 0.3095,-0.25686 0.91358,0.78312 0.71194,1.22567 -0.0852,0.1871 -0.0999,0.19107 -0.20324,0.055 -0.0948,-0.12492 -0.0992,-0.1028 -0.0294,0.14909 0.10386,0.37491 0.10357,0.50856 -0.001,0.50856 -0.0457,0 -0.10559,-0.10478 -0.13314,-0.23283 z m 10.16452,-4.86223 c -0.0931,-0.052 -0.17833,-0.10114 -0.18934,-0.10916 -0.011,-0.008 0.0359,-0.30667 0.10419,-0.66367 0.15582,-0.81442 0.11357,-0.92851 -0.55827,-1.50741 -1.20023,-1.03418 -1.50285,-1.49187 -1.6875,-2.55223 -0.0994,-0.57091 -0.008,-1.1638 0.17849,-1.1638 0.043,0 0.0765,-0.0476 0.0746,-0.10584 -0.002,-0.0582 -0.12911,0.0362 -0.28261,0.2099 -0.27908,0.31572 -0.27908,0.31572 -0.46691,0.0997 -0.15201,-0.17482 -0.25182,-0.2114 -0.52333,-0.1918 -0.33465,0.0242 -0.33613,0.0229 -0.5843,-0.50187 -0.13684,-0.28935 -0.28677,-0.52609 -0.33317,-0.52609 -0.0464,0 0.007,0.19787 0.11936,0.43972 1.28483,2.77317 -2.42536,6.36186 -4.47752,4.33088 -1.16197,-1.14997 -1.50849,-4.32368 -0.57832,-5.29662 0.72718,-0.76061 2.25941,-0.78474 3.78751,-0.0597 0.32513,0.15428 0.66842,0.28622 0.76287,0.2932 0.0944,0.007 0.304,0.0733 0.46567,0.14737 0.16166,0.0741 0.65589,0.21653 1.09827,0.31658 0.92754,0.20977 1.38591,0.38679 1.31185,0.50663 -0.032,0.0518 0.14062,0.0839 0.45149,0.0839 1.17482,0 1.44783,0.3176 1.96507,2.286 0.14071,0.53551 0.31093,1.09677 0.37825,1.24723 0.0794,0.1775 0.0977,0.34036 0.052,0.4638 -0.0387,0.10464 -0.0381,0.307 0.001,0.4497 0.0421,0.15246 0.0371,0.37996 -0.0122,0.55164 -0.12823,0.44712 -0.089,0.49934 0.093,0.12396 0.16428,-0.33867 0.16428,-0.33867 0.11696,0.0384 -0.10142,0.80832 -0.75895,1.37354 -1.26746,1.08952 z m -18.15431,-4.66277 c -0.004,-0.2212 0.0272,-0.40217 0.0686,-0.40217 0.0414,0 0.10063,-0.13535 0.13167,-0.30078 0.031,-0.16543 0.10603,-0.31982 0.16666,-0.34309 0.0606,-0.0233 0.15988,-0.19271 0.22055,-0.37655 0.0607,-0.18383 0.14231,-0.33425 0.18143,-0.33425 0.0987,0 0.0892,0.14813 -0.0136,0.21167 -0.0466,0.0288 -0.0847,0.14308 -0.0847,0.254 0,0.11092 -0.0381,0.22522 -0.0847,0.254 -0.0466,0.0288 -0.0847,0.17935 -0.0847,0.33461 0,0.16311 -0.0498,0.30137 -0.11789,0.32751 -0.0648,0.0249 -0.17613,0.20994 -0.24732,0.41123 -0.12942,0.36598 -0.12942,0.36598 -0.1361,-0.0362 z m 15.36947,0.23319 c -0.0881,-0.0667 -0.20194,-0.13518 -0.253,-0.1522 -0.0657,-0.0219 -0.0623,-0.098 0.0116,-0.26014 0.0985,-0.21612 0.0875,-0.23918 -0.19149,-0.40381 -0.38808,-0.22897 -0.37395,-0.32721 0.047,-0.32721 0.37991,0 0.55862,0.26095 0.6523,0.9525 0.0461,0.34041 -0.013,0.38274 -0.26646,0.19086 z m -16.13463,-2.71944 c -0.002,-0.0519 0.0674,-0.18528 0.15416,-0.29634 0.0867,-0.11105 0.18188,-0.27811 0.21145,-0.37125 0.0296,-0.0931 0.16815,-0.29109 0.30798,-0.43991 0.13982,-0.14881 0.25422,-0.33098 0.25422,-0.40482 0,-0.0738 0.0537,-0.15486 0.11936,-0.18005 0.0656,-0.0252 0.14185,-0.12877 0.16935,-0.23018 0.0275,-0.1014 0.20238,-0.34956 0.38864,-0.55146 0.18626,-0.20189 0.33984,-0.39239 0.34131,-0.42333 0.001,-0.0309 0.10249,-0.12906 0.22451,-0.21805 0.30367,-0.22149 0.034,0.27288 -0.36479,0.66883 -0.14554,0.14448 -0.34502,0.4203 -0.44329,0.61293 -0.0983,0.19262 -0.21804,0.37455 -0.26616,0.40429 -0.0481,0.0297 -0.17843,0.23235 -0.28958,0.45025 -0.21741,0.4262 -0.80136,1.13453 -0.80716,0.97909 z m 3.98791,-0.61598 c -0.14041,-0.089 -0.0518,-0.43261 0.11154,-0.43261 0.0617,0 0.13417,-0.0572 0.16098,-0.127 0.0268,-0.0699 0.088,-0.127 0.13605,-0.127 0.048,0 0.0873,0.0572 0.0873,0.127 0,0.0699 -0.0333,0.127 -0.0741,0.127 -0.0407,0 -0.0969,0.1143 -0.12488,0.254 -0.0533,0.26632 -0.10725,0.29879 -0.29693,0.17861 z m 10.55976,-0.70777 c -0.55687,-0.57261 -0.6358,-0.72252 -0.4685,-0.88982 0.1833,-0.1833 0.84354,0.24378 0.89025,0.57585 0.0161,0.11447 0.068,0.25527 0.11531,0.31289 0.0981,0.1195 0.0314,0.36091 -0.0997,0.36091 -0.0481,0 -0.2449,-0.16193 -0.43737,-0.35983 z m -4.1372,-0.0175 c 0,-0.029 0.0776,-0.20495 0.17254,-0.39096 0.19402,-0.38031 0.16301,-0.50172 -0.12814,-0.50172 -0.10979,0 -0.21708,-0.0476 -0.23842,-0.10583 -0.031,-0.0847 -0.0612,-0.0847 -0.15099,0 -0.17164,0.16192 -0.30553,0.12627 -0.29052,-0.0774 0.007,-0.10113 0.0938,-0.21292 0.19284,-0.24954 0.11866,-0.0439 0.19888,-0.17045 0.23706,-0.374 0.0847,-0.4514 0.80907,-1.11662 0.91509,-0.84034 0.1215,0.31662 0.45222,0.33076 0.78976,0.0337 0.39795,-0.35016 0.51636,-0.10889 0.17882,0.36435 -0.108,0.15142 -0.27887,0.45311 -0.3797,0.67042 -0.22292,0.48042 -1.29834,1.69905 -1.29834,1.47124 z m -5.24933,-0.54624 c 0,-0.0431 0.0286,-0.091 0.0635,-0.10655 0.0349,-0.0155 0.1778,-0.25641 0.3175,-0.5353 0.1397,-0.2789 0.35878,-0.65609 0.48683,-0.83821 0.12806,-0.18211 0.23284,-0.38375 0.23284,-0.44807 0,-0.0643 0.0569,-0.1388 0.12651,-0.16551 0.0696,-0.0267 0.10428,-0.0845 0.0771,-0.12851 -0.0272,-0.044 -0.20794,0.14725 -0.40169,0.42494 -0.48152,0.69017 -1.01143,1.25124 -1.05587,1.11794 -0.0196,-0.0589 0.0449,-0.21607 0.14347,-0.34934 0.0985,-0.13327 0.17914,-0.26323 0.17914,-0.2888 0,-0.11145 1.11568,-1.32824 1.16899,-1.27493 0.0457,0.0457 0.22995,-0.23217 0.3212,-0.4846 0.0295,-0.0815 0.0969,-0.14817 0.14979,-0.14817 0.0529,0 0.29415,-0.1868 0.53605,-0.41512 0.43316,-0.40883 1.39823,-0.93954 1.7085,-0.93954 0.0873,0 0.20617,-0.0572 0.26414,-0.127 0.12548,-0.1512 0.2821,-0.16897 0.23465,-0.0266 -0.0314,0.0943 -0.64643,0.47754 -1.05283,0.65607 -0.60003,0.26359 -3.16115,3.40428 -3.16115,3.87651 0,0.0372 -0.0762,0.11524 -0.16934,0.1734 -0.0931,0.0582 -0.16933,0.0705 -0.16933,0.0274 z m -2.62467,-1.70376 c 0,-0.048 0.0572,-0.10926 0.127,-0.13606 0.0699,-0.0268 0.127,-0.0936 0.127,-0.14842 0,-0.0548 0.1143,-0.16721 0.254,-0.24973 0.1397,-0.0825 0.254,-0.18599 0.254,-0.22992 0,-0.0439 0.0381,-0.0799 0.0847,-0.0799 0.0466,0 0.0847,0.0408 0.0847,0.0907 0,0.11604 -0.21493,0.33262 -0.33009,0.33262 -0.0485,0 -0.17268,0.1143 -0.27597,0.254 -0.19004,0.25704 -0.32528,0.32634 -0.32528,0.16668 z"
       id="path4577"
       inkscape:connector-curvature="0" />
  </g>
</svg>
