<?xml version="1.0" standalone="no"?>
<!DOCTYPE svg PUBLIC "-//W3C//DTD SVG 20010904//EN"
 "http://www.w3.org/TR/2001/REC-SVG-20010904/DTD/svg10.dtd">
<svg version="1.0" xmlns="http://www.w3.org/2000/svg"
 width="215.000000pt" height="55.000000pt" viewBox="0 0 215.000000 55.000000"
 preserveAspectRatio="xMidYMid meet">
<g transform="translate(0.000000,55.000000) scale(0.100000,-0.100000)"
fill="white" stroke="none">
<path d="M268 341 c-10 -14 -23 -19 -48 -17 -19 2 -46 0 -60 -4 -20 -5 -12 -8
34 -14 33 -4 69 -14 81 -22 24 -16 75 -4 75 17 0 8 190 9 710 3 658 -6 710 -6
710 10 0 15 -54 16 -709 14 -666 -3 -710 -2 -720 15 -15 23 -57 22 -73 -2z"/>
<path d="M478 221 c-10 -14 -23 -19 -48 -17 -19 2 -46 0 -60 -4 -20 -5 -12 -8
34 -14 33 -4 69 -14 81 -22 25 -16 75 -4 75 17 0 9 169 10 710 5 647 -7 710
-6 710 8 0 15 -65 16 -709 14 -666 -3 -710 -2 -720 15 -15 23 -57 22 -73 -2z"/>
</g>
</svg>
